<?xml version="1.0" encoding="utf-8"?>
<svg version="1.1" id="Layer_1" xmlns="http://www.w3.org/2000/svg" xmlns:xlink="http://www.w3.org/1999/xlink" x="0px" y="0px"
	 viewBox="271.7 -426.1 1121.5 237.2" enable-background="new 271.7 -426.1 1121.5 237.2" xml:space="preserve">
	 <style type="text/css">
     	.st0{fill:#FFFFFF;}
     </style>
<g>
	<g>
		<path class="st0" d="M389-404.3c-5.6-5.5-13.3-10.2-22.9-13.8c-9.6-3.6-21.9-5.4-36.6-5.4h-55.1c-1.3,0-2.4,0.9-2.7,2.1
			c-0.3,1.2,0.2,2.5,1.4,3.1c1.8,1,3.3,2.3,4.8,4.2c1.3,1.6,1.9,3.7,1.9,6.4v170.1c0,2.6-0.6,4.7-1.8,6.2c-1.5,1.8-3.1,3.3-5,4.5
			c-1,0.7-1.5,1.9-1.2,3.1c0.3,1.2,1.4,2,2.6,2h43c0,0,0.1,0,0.1,0c1.5,0,2.8-1.2,2.8-2.8c0-1.2-0.8-2.3-1.9-2.6
			c-1.9-1.1-3.5-2.4-4.6-4c-1.1-1.5-1.6-3.7-1.6-6.3v-72.7c4.6,1.6,9.4,2.6,14.2,2.9c6,0.5,11.7,0.4,17.1-0.1
			c5.3-0.6,10.1-1.5,14.4-2.7c4.3-1.2,7.6-2.3,10-3.3c2.5-1,5.7-2.8,9.7-5.4c4-2.6,8.1-6.2,12-10.6c3.9-4.4,7.3-9.7,10.2-15.8
			c3-6.2,4.4-13.6,4.4-21.8c0-5.8-1.1-12.1-3.3-18.7C398.6-392.5,394.6-398.7,389-404.3z M312.1-406.1h1.9c1.6,0,3.6,0,6.2-0.1
			c2.5-0.1,5.3-0.1,8.6-0.1c13.8,0,24.2,3.6,31,10.6c6.9,7,10.3,16.9,10.3,29.4c0,9.2-1.7,16.7-5.1,22.2c-3.4,5.6-7.6,9.9-12.3,12.8
			c-4.9,3-10,4.9-15.3,5.8c-12.7,2.2-20.4,1.6-25.2,0.2L312.1-406.1L312.1-406.1z"/>
		<path class="st0" d="M491.3-361.2c-1.8-0.8-3.2-1.4-4.4-1.8c-1-0.3-2.7-0.7-7.7-0.7c-2.9,0-6.1,0.9-9.5,2.8
			c-3.2,1.8-6.3,4-9.3,6.7c-3,2.7-5.8,5.6-8.4,8.6c-0.4,0.5-0.8,1-1.2,1.4V-361c0-0.8-0.4-1.6-1-2.1c-0.6-0.5-1.5-0.7-2.3-0.6
			l-35.5,6.9c-1.2,0.2-2.2,1.3-2.2,2.6c-0.1,1.3,0.7,2.4,1.9,2.8c2.3,0.7,4.5,1.6,6.5,2.8c1.7,0.9,1.9,4.2,1.9,6.1v107
			c0,3.3-0.8,4.5-1.2,5c-1.2,1.2-2.8,2.4-4.9,3.6c-1.1,0.6-1.6,1.9-1.3,3.1c0.3,1.2,1.4,2,2.7,2h40.1c0,0,0.1,0,0.1,0
			c1.5,0,2.8-1.2,2.8-2.8c0-1.2-0.7-2.2-1.8-2.6c-1.8-1.1-3.3-2.3-4.5-3.5c-0.8-0.8-1.3-2.5-1.3-4.9V-324c2.5-3,5.6-6.1,9.4-9.2
			c3.8-3.1,8-4.6,13-4.6c3.3,0,6.1,0.7,8.4,2.1c2.4,1.4,4.6,3.4,6.5,5.8c0.7,0.9,1.9,1.3,3.1,0.9c1.1-0.4,1.9-1.4,1.9-2.6v-27.1
			C492.9-359.8,492.3-360.7,491.3-361.2z"/>
		<path class="st0" d="M609.7-340.5c-5.4-6.8-12.3-12.4-20.5-16.7c-8.3-4.3-18.2-6.5-29.5-6.5c-10.4,0-19.8,2.1-28.1,6.4
			c-8.2,4.2-15.2,9.8-20.9,16.7c-5.6,6.8-10,14.6-13,23.2c-3,8.5-4.5,17.4-4.5,26.3c0,7.9,1.2,16.1,3.6,24.4
			c2.4,8.4,6.2,16.1,11.4,23.1c5.2,7,12.1,12.9,20.5,17.5c8.4,4.6,18.7,7,30.5,7c10,0,19.2-2.1,27.4-6.4c8.1-4.2,15.1-9.7,20.9-16.5
			c5.8-6.8,10.3-14.5,13.3-23.1c3.1-8.5,4.6-17.3,4.6-26c0-8.9-1.3-17.7-3.7-26.1C619.1-325.9,615.1-333.7,609.7-340.5z
			 M575.8-240.7c-4.1,3-8.9,4.6-14.7,4.8l-1,0c-5,0-9.5-1.2-13.4-3.7c-4.3-2.6-8.1-6.4-11.1-11.2c-3.1-4.9-5.6-10.8-7.5-17.4
			c-1.9-6.7-2.9-14-3.1-21.5c-0.2-7.5,0.3-14.8,1.5-21.8c1.2-6.9,3.1-13.1,5.8-18.4c2.6-5.2,6-9.5,10.2-12.8c4-3.2,9-4.9,14.7-5l1,0
			c5.4,0,10,1.3,14.1,4c4.4,2.9,8.2,7,11.3,12c3.1,5.1,5.5,11.1,7,17.8c1.6,6.8,2.6,13.9,3,21c0.4,7.9-0.1,15.3-1.3,22.2
			c-1.2,6.8-3.2,12.8-6,17.9C583.5-248,580-243.9,575.8-240.7z"/>
		<path class="st0" d="M978.8-233.9c-3.6-0.6-5.9-2-7.2-4.1c-1.4-2.4-2.1-5.7-2.1-9.6V-361c0-0.8-0.4-1.6-1-2.1
			c-0.6-0.5-1.5-0.7-2.3-0.6l-34.6,6.9c-1.2,0.2-2.1,1.3-2.2,2.5c-0.1,1.2,0.7,2.4,1.9,2.8c2.1,0.7,4.3,1.7,6.3,2.8
			c1.7,0.9,1.9,4.2,1.9,6.1v87.6c-3.8,3.6-7.8,6.7-11.8,9.2c-4,2.6-9.4,3.9-16,3.9c-7.5,0-13.7-2.8-19-8.5c-5.3-5.7-7.9-14.4-7.9-26
			V-361c0-0.8-0.4-1.6-1-2.1c-0.6-0.5-1.5-0.7-2.3-0.6l-34.9,6.9c-1.2,0.2-2.1,1.3-2.2,2.5c-0.1,1.2,0.7,2.4,1.9,2.8l3.5,1.2
			c0.8,0.3,1.6,0.7,2.3,1.3c0.6,0.5,1.1,1.2,1.5,2.1c0.3,0.7,0.6,2,0.6,4.4v66.3c0,11.1,1.6,20.4,4.7,27.7
			c3.1,7.4,7.1,13.2,11.8,17.6c4.7,4.3,9.9,7.4,15.3,9.1c5.3,1.7,10.3,2.6,14.8,2.6c10.7,0,19.7-2.3,26.9-6.9
			c4.8-3.1,9.1-6.3,12.8-9.7c0.1,0.8,0.2,1.6,0.3,2.2c0.4,2.4,1.2,4.5,2.2,6.3c1,1.7,2.4,3.2,4,4.5c1.4,1.1,3.1,2.2,5,3.3
			c0.4,0.2,0.9,0.4,1.3,0.4c0.3,0,0.6-0.1,0.9-0.2l25.1-9.2c1.2-0.4,1.9-1.6,1.8-2.8C981-232.7,980.1-233.7,978.8-233.9z"/>
		<path class="st0" d="M1094.2-349.1c-5.5-5.1-11.7-8.8-18.4-11.1c-6.7-2.3-13.4-3.5-19.8-3.5c-11.4,0-21.5,2.3-30.3,6.8
			c-8.7,4.5-16,10.3-21.7,17.4c-5.7,7-10.1,14.9-13,23.5c-2.9,8.5-4.4,16.9-4.4,25.1c0,8.9,1.6,17.8,4.7,26.2
			c3.1,8.4,7.7,16.2,13.6,22.9c6,6.8,13.2,12.3,21.6,16.4c8.4,4.1,18.1,6.2,28.6,6.2c8,0,15.5-1.4,22.4-4.2
			c6.8-2.8,12.7-6.5,17.7-11c4.9-4.5,8.9-9.8,11.9-15.7c3-5.9,4.5-12.1,4.8-18.4c0-1.3-0.9-2.5-2.2-2.8c-1.3-0.3-2.6,0.4-3.1,1.7
			c-1.2,3.2-3.3,6.4-6.2,9.7c-2.9,3.4-6.4,6.5-10.4,9.2c-4,2.7-8.5,5-13.1,6.8c-4.6,1.7-9.2,2.6-13.9,2.6c-7.2,0-13.6-1.4-18.9-4.2
			c-5.4-2.8-9.9-6.5-13.5-11.2c-3.6-4.7-6.4-10.2-8.2-16.4c-1.8-6.3-2.8-13-2.8-20v-5.3h90.7c1.5,0,2.7-1.2,2.7-2.8
			c0-10.9-1.8-20.5-5.3-28.4C1104.2-337.5,1099.6-344.1,1094.2-349.1z M1021.1-314.7c0.6-3.7,1.6-7.3,2.9-10.7
			c1.6-4.3,3.8-8.3,6.5-11.7c2.6-3.3,5.8-6,9.5-7.9c6.5-3.4,15.5-3.9,23.2-0.9c3.3,1.3,6.4,3.3,8.9,6.1c2.6,2.8,4.7,6.5,6.3,11
			c1.4,3.9,2.2,8.7,2.4,14.1L1021.1-314.7L1021.1-314.7L1021.1-314.7z"/>
		<path class="st0" d="M1202.9-291.9c-3.8-3.7-8.1-7-12.9-9.9c-4.6-2.8-9.3-5.5-13.9-8.2c-7.6-4.4-13.5-8.3-17.7-11.6
			c-3.7-2.9-5.5-6.9-5.5-12.3c0-1.6,0.4-3.2,1.1-4.8c0.7-1.7,1.8-3.2,3.4-4.7c1.6-1.5,3.6-2.7,5.9-3.6c2.3-0.9,5.2-1.4,8.5-1.4
			c4,0,7.3,0.9,10.3,2.6c3.1,1.9,5.8,4.3,8.2,7.2c2.4,2.9,4.5,6.3,6.3,10.1c1.8,3.9,3.2,7.6,4.3,11.1c0.4,1.3,1.7,2.1,3,1.9
			c1.3-0.2,2.3-1.4,2.3-2.7v-34.6c0-1-0.6-2-1.5-2.5c-6.9-3.6-13.2-5.9-18.7-7c-5.6-1.1-10.2-1.6-14.2-1.6c-8.4,0-15.6,1.2-21.3,3.7
			c-5.7,2.4-10.4,5.6-14,9.4c-3.6,3.8-6.2,8-7.8,12.5c-1.5,4.4-2.3,8.5-2.3,12.3c0,4.3,0.5,8.3,1.6,11.9c1,3.7,2.9,7.2,5.4,10.4
			c2.4,3.1,5.7,6.3,9.7,9.4c3.9,3,8.8,6.3,14.5,9.6l13.3,7.6c3.7,2.1,6.8,4.2,9.2,6.3c2.3,2,4,4,5.1,6.2c1,2.1,1.6,4.7,1.6,7.7
			c0,1.5-0.3,3.4-1,5.7c-0.7,2.3-1.9,4.5-3.7,6.7c-1.8,2.2-4.2,4.1-7.2,5.6c-3,1.5-6.8,2.3-11.6,2.3c-4.3,0-8.3-1-11.8-3
			c-3.6-2-6.9-4.8-9.8-8.2c-2.9-3.5-5.5-7.5-7.5-12c-2.1-4.5-3.7-9.2-4.9-14c-0.3-1.4-1.6-2.3-3-2.1c-1.4,0.2-2.4,1.3-2.4,2.7v37.2
			c0,0.9,0.5,1.8,1.3,2.3c4.9,3.1,10.6,6.2,17,9.3c6.7,3.1,14.3,4.7,22.8,4.7c5.5,0,11.2-0.9,17.2-2.7c6-1.8,11.6-4.4,16.5-7.9
			c5-3.5,9.2-7.9,12.5-13.2c3.3-5.4,5-11.8,5-19c0-6.4-1.3-12.1-3.8-16.9C1210-283.9,1206.8-288.2,1202.9-291.9z"/>
		<path class="st0" d="M1301.3-244.1c-1-0.4-2.2-0.2-3,0.6c-0.9,0.9-1.9,1.8-2.8,2.6c-0.8,0.7-1.8,1.4-2.8,1.9
			c-1.2,0.6-2.7,1.1-4.4,1.5c-3.1,0.8-7.6,1-14-0.2c-2.5-0.5-5-1.6-7.4-3.4c-2.3-1.7-4.4-4.4-6.1-8.1c-1.7-3.6-2.6-8.7-2.6-15v-78.6
			h37.6c1.5,0,2.8-1.2,2.8-2.8v-12.1c0-1.5-1.2-2.8-2.8-2.8h-37V-384c0-1.1-0.7-2.1-1.7-2.5s-2.2-0.2-3,0.6l-37.5,38.6
			c-0.8,0.8-1,2-0.6,3c0.4,1,1.4,1.7,2.5,1.7h9.7v78.9c0,14.6,4.1,25.8,12.3,33.3c8.1,7.5,18.4,11.3,30.6,11.3
			c4.6,0,8.8-0.7,12.5-2.2c3.7-1.4,7-3.2,9.8-5.4c2.8-2.2,5.1-4.5,6.8-6.9c1.9-2.7,2.8-5.3,2.8-7.8
			C1303-242.7,1302.3-243.7,1301.3-244.1z"/>
		<path class="st0" d="M841-200.7c0,0-3.7,0.8-9.1,0.8c-12.2,0-34-4.4-43.1-33.7c-0.3-0.9-0.6-1.7-0.8-2.5
			c7.2-4.3,11.8-8.1,18.1-14.8c7.9-8.4,14.5-18.6,19.6-30.3c5.1-11.7,7.9-25.2,8.2-40.1c0.4-16.7-2.4-31.6-8.1-44.4
			c-5.7-12.8-13.3-23.7-22.4-32.4c-9.1-8.8-19.6-15.5-31.1-20.2c-11.5-4.6-23-7.2-34.3-7.6c-15.9-0.4-30.3,2.4-42.8,8.3
			c-12.4,5.9-23,13.8-31.7,23.4c-8.7,9.6-15.5,20.7-20.1,32.9c-4.6,12.2-7.1,24.4-7.3,36.4c-0.4,14.3,1.8,27.8,6.5,40.1
			c4.6,12.3,11.1,23.1,19.3,32.3c8.2,9.2,17.8,16.7,28.8,22.4c10.9,5.7,22.8,9.2,35.6,10.4l23.1-1.2c4.8-0.7,9.7-1.8,14.7-3.4
			c0.6,1.8,1.2,3.7,1.7,5.6c5.4,19.5,20.1,29.9,42.6,29.9c17.6,0,33.7-6.3,34.4-6.5c1.3-0.5,2-2,1.6-3.4
			C843.8-200.2,842.4-201,841-200.7z M719.2-268.6c-1.4,0.3-2.3,1.7-2.1,3.1c0.2,1.4,1.4,2.4,2.7,2.4c0.1,0-0.2,0,1.2,0
			c5,0,21.8,5.1,34.3,22c-13,4.5-28.4,4.5-43-2c-7.7-3.5-14.8-8.9-21-16c-6.2-7.2-11.4-16.5-15.4-27.7c-4-11.2-6-24.6-6-40
			c0-12.9,1.7-24.5,5-34.6c3.3-10,7.9-18.6,13.8-25.5c5.8-6.9,12.8-12.2,20.6-15.9c7.8-3.7,16.5-5.5,25.9-5.5c9.3,0,18,2,25.8,6
			c7.8,4,14.7,9.9,20.3,17.5c5.7,7.7,10.3,17.1,13.5,28c3.2,10.9,4.9,23.3,4.9,36.8c0,12.7-1.6,24.3-4.9,34.3
			c-3.2,10-7.7,18.7-13.4,25.8c-0.9,1.1-1.5,1.9-2,2.6c-0.7,0.9-1.1,1.5-1.8,2.2c-8.2-8.3-20.3-16.2-35.9-16.2
			C734.7-271.3,726.9-270.4,719.2-268.6z"/>
	</g>
</g>
</svg>
