<?xml version="1.0" standalone="no"?>
<!DOCTYPE svg PUBLIC "-//W3C//DTD SVG 1.1//EN" "http://www.w3.org/Graphics/SVG/1.1/DTD/svg11.dtd" >
<svg xmlns="http://www.w3.org/2000/svg">
<metadata>
<json>
{
	"fontFamily": "UX-Framework",
	"majorVersion": 1,
	"minorVersion": 1,
	"fontURL": "http://www.proquest.com",
	"designer": "Justin Baker",
	"designerURL": "",
	"version": "Version 1.1",
	"fontId": "UX-Framework",
	"psName": "UX-Framework",
	"subFamily": "Regular",
	"fullName": "UX-Framework",
	"description": "Generated by IcoMoon"
}
</json>
</metadata>
<defs>
<font id="UX-Framework" horiz-adv-x="512">
<font-face units-per-em="512" ascent="480" descent="-32" />
<missing-glyph horiz-adv-x="512" />
<glyph unicode="&#x20;" d="" horiz-adv-x="256" />
<glyph unicode="&#x21;" d="M429.461 289.516c8.204 0 16.408-4.688 24.613-11.721 8.204-8.204 11.721-16.408 11.721-24.613 0 0 0-234.407 0-234.407 0-18.752-9.377-32.817-28.128-39.849 0 0-36.334-10.548-36.334-10.548-16.407-5.861-36.334-9.376-57.43-9.376 0 0-174.634 0-174.634 0-22.268 0-42.194 3.516-58.602 9.376 0 0-36.334 10.548-36.334 10.548-18.752 7.033-28.129 21.096-28.129 39.849 0 0 0 234.407 0 234.407 0 8.204 2.343 16.407 8.204 24.613 7.032 7.033 14.064 11.721 21.097 11.721 0 0 60.946 0 60.946 0 0 0 0 41.021 0 41.021 0 44.538 9.376 78.527 30.473 101.968 19.924 24.613 50.398 36.334 89.075 36.334 38.678 0 69.15-11.721 89.075-36.334 21.096-23.44 30.473-57.43 30.473-101.968 0 0 0-41.021 0-41.021 0 0 53.913 0 53.913 0zM196.226 343.429c0 0 0-53.913 0-53.913s119.548 0 119.548 0c0 0 0 53.913 0 53.913 0 19.924-4.688 36.333-16.408 48.053-10.548 11.72-24.613 17.58-43.365 17.58-18.752 0-32.817-5.861-43.365-17.58-11.72-11.721-16.407-28.129-16.407-48.053z" />
<glyph unicode="&#x22;" d="M418.789 269.429c7.7 0 15.399-3.3 23.099-10.999s10.999-15.399 10.999-23.099c0 0 0-218.886 0-218.886 0-7.7-2.2-15.399-7.7-21.998-5.5-7.7-12.099-12.099-18.699-14.3 0 0-34.098-10.999-34.098-10.999-19.798-6.599-37.397-8.799-53.897-8.799 0 0-163.889 0-163.889 0-16.499 0-35.198 2.199-54.996 8.799 0 0-34.098 10.999-34.098 10.999-6.6 2.2-13.199 6.599-18.699 14.3-5.5 6.599-7.7 14.3-7.7 21.998 0 0 0 218.886 0 218.886 0 8.799 2.2 16.499 7.7 23.099 6.6 7.7 13.199 10.999 19.799 10.999 0 0 225.486 0 225.486 0 0 0 0 79.195 0 79.195 0 40.697-18.699 61.596-56.096 61.596-37.398 0-56.096-20.899-56.096-61.596 0 0 0-23.099 0-23.099 0 0-56.096 0-56.096 0 0 0 0 12.099 0 12.099 0 40.697 8.799 72.595 28.598 95.694 18.699 21.998 47.297 32.998 83.594 32.998 74.796 0 112.193-42.897 112.193-128.691 0 0 0-68.196 0-68.196 0 0 50.596 0 50.596 0z" />
<glyph unicode="&#x23;" d="M452.887 466.317c16.499 0 29.698-5.5 40.697-15.398 9.899-10.999 15.399-24.198 15.399-40.698 0 0 0-393.775 0-393.775 0-15.399-5.5-28.598-15.399-39.598-10.999-10.999-24.198-16.499-40.697-16.499 0 0-252.983 0-252.983 0-15.399 0-28.598 5.5-39.598 16.499-9.899 10.999-15.399 24.198-15.399 39.598 0 0 0 56.096 0 56.096 0 0 54.996 0 54.996 0 0 0 0-56.096 0-56.096 0 0 252.983 0 252.983 0 0 0 0 393.775 0 393.775 0 0-252.983 0-252.983 0 0 0 0-84.694 0-84.694 0 0-54.996 0-54.996 0 0 0 0 84.694 0 84.694 0 16.499 5.5 29.698 15.399 40.697 10.999 9.9 24.198 15.399 39.598 15.399 0 0 252.983 0 252.983 0zM256 89.042c0 0 0 68.195 0 68.195s-252.983 0-252.983 0c0 0 0 84.695 0 84.695 0 0 252.983 0 252.983 0 0 0 0 67.095 0 67.095 0 0 112.193-108.893 112.193-108.893 0 0-112.193-111.093-112.193-111.093z" />
<glyph unicode="&#x24;" d="M285.698 16.446c0 0 0 56.096 0 56.096s54.996 0 54.996 0c0 0 0-56.096 0-56.096 0-15.399-5.5-28.598-16.499-39.598-10.999-10.999-24.198-16.499-39.598-16.499 0 0-225.486 0-225.486 0-15.398 0-28.598 5.5-39.598 16.499-10.999 10.999-16.499 24.198-16.499 39.598 0 0 0 393.775 0 393.775 0 16.499 5.5 29.698 16.499 40.697 10.999 9.9 24.198 15.399 39.598 15.399 0 0 225.486 0 225.486 0 15.399 0 28.598-5.5 39.598-15.399 10.999-10.999 16.499-24.198 16.499-40.697 0 0 0-84.694 0-84.694 0 0-54.996 0-54.996 0 0 0 0 84.694 0 84.694 0 0-226.585 0-226.585 0 0 0 0-393.775 0-393.775 0 0 226.585 0 226.585 0zM508.983 200.134c0 0-111.093-111.093-111.093-111.093s0 68.195 0 68.195c0 0-252.983 0-252.983 0 0 0 0 84.695 0 84.695 0 0 252.983 0 252.983 0 0 0 0 67.095 0 67.095 0 0 111.092-108.893 111.092-108.893z" />
<glyph unicode="&#x25;" d="M190.668 68.152c6.049 6.050 12.099 8.469 20.567 8.469s15.728-2.419 22.987-8.469c12.099-13.309 12.099-27.827 0-43.555 0 0-26.617-24.197-26.617-24.197-22.987-22.987-50.814-35.086-82.27-35.086-31.456 0-59.282 12.099-82.27 35.086-22.987 22.987-35.086 50.813-35.086 81.060 0 32.666 12.099 60.493 35.086 83.478 0 0 91.948 91.948 91.948 91.948 29.036 27.827 58.073 43.555 88.319 47.184 31.456 3.63 56.862-4.839 79.85-26.617 6.050-6.049 9.679-13.309 9.679-21.777 0-8.469-3.63-15.728-9.679-22.987-14.518-13.309-29.036-13.309-43.555 0-20.567 20.567-48.394 13.309-82.27-20.567 0 0-90.739-90.738-90.739-90.738-10.889-10.889-16.937-24.197-16.937-39.925 0-15.728 6.049-27.827 16.937-37.505 10.889-10.889 22.987-16.937 38.716-16.937 15.728 0 27.827 6.050 38.715 16.937 0 0 26.617 24.197 26.617 24.197zM468.933 423.847c22.987-22.987 35.086-50.814 35.086-82.27s-12.099-59.282-35.086-82.27c0 0-97.997-97.997-97.997-97.997-30.246-30.246-61.702-44.764-93.157-44.764-25.407 0-48.394 10.889-68.96 31.456-6.049 6.050-8.469 12.099-8.469 20.567 0 8.469 2.419 15.728 8.469 22.987 6.049 4.839 13.309 8.469 21.777 8.469 8.469 0 15.728-3.63 21.777-8.469 20.567-20.567 45.974-15.728 75.010 14.518 0 0 97.997 96.788 97.997 96.788 12.099 10.889 18.147 24.196 18.147 38.715 0 15.729-6.050 29.036-18.147 38.716-9.679 10.889-20.567 16.937-33.875 19.357-13.309 2.419-26.616-2.419-37.505-13.309 0 0-31.456-30.246-31.456-30.246-6.050-6.049-13.309-8.469-21.777-8.469-8.469 0-15.728 2.419-21.777 8.469-13.309 13.309-13.309 27.827 0 43.555 0 0 31.456 30.246 31.456 30.246 21.777 22.987 48.394 32.666 78.64 31.456 30.246-1.211 56.863-13.309 79.85-37.505z" />
<glyph unicode="&#x26;" d="M256 469.352c44.96 0 82.426-16.236 113.647-47.457 31.221-29.973 46.209-68.688 46.209-112.399 0-44.96-13.738-97.412-39.964-156.11-26.226-57.447-52.452-104.906-79.928-142.371 0 0-39.964-53.701-39.964-53.701-3.747 4.995-9.991 12.489-17.483 22.479-7.494 9.991-19.982 28.724-38.715 57.447-17.483 27.475-33.72 54.95-47.458 82.426-14.987 27.475-27.475 58.697-38.715 94.914-11.24 34.969-17.483 66.191-17.483 94.914 0 43.711 14.987 82.426 46.208 112.399 31.221 31.221 69.936 47.457 113.647 47.457zM256 220.827c23.728 0 44.96 8.742 61.195 26.227 17.483 16.236 26.226 37.466 26.226 61.194 0 23.729-8.742 43.711-26.226 59.947-16.236 17.484-37.466 24.977-61.195 24.977-23.728 0-43.711-7.493-61.195-24.977-16.236-16.236-24.977-36.217-24.977-59.947 0-23.728 8.742-44.96 24.977-61.194 17.483-17.483 37.466-26.227 61.195-26.227z" />
<glyph unicode="&#x27;" d="M470.13 255.192c16.101 0 24.15-14.491 24.15-41.859s-8.050-41.859-24.15-41.859c0 0-428.257 0-428.257 0-16.101 0-24.15 14.491-24.15 41.859 0 27.37 8.050 41.859 24.15 41.859 0 0 428.257 0 428.257 0z" />
<glyph unicode="&#x28;" d="M256 465.321c69.15 0 128.924-24.613 178.149-73.839s73.839-108.999 73.839-178.149c0-69.15-24.613-128.924-73.839-178.149-49.226-49.226-109-73.839-178.149-73.839-69.15 0-128.924 24.613-178.149 73.839-49.225 49.226-73.839 109-73.839 178.149 0 69.15 24.613 128.925 73.839 178.149 49.225 49.225 109 73.839 178.149 73.839zM407.193 244.978c0 0-302.385 0-302.385 0s0-62.118 0-62.118c0 0 302.385 0 302.385 0 0 0 0 62.118 0 62.118z" />
<glyph unicode="&#x29;" d="M185 318.333c0 0-108-96-108-96s108-100 108-100c0 0 0-71 0-71 0 0-185 171-185 171 0 0 185 165 185 165 0 0 0-69 0-69zM313 289.333c36 0 67-9 94-26 26-17 46-38 58-62 13-25 23-49 31-74 8-25 13-45 14-62 0 0 2-26 2-26-29 52-58 86-86 101-28 15-66 23-113 23 0 0 0-112 0-112 0 0-185 171-185 171 0 0 185 165 185 165 0 0 0-98 0-98z" />
<glyph unicode="&#x2a;" d="M508.983 21.945c-31.898 57.197-70.396 93.494-116.593 111.093-46.197 16.499-107.793 25.298-185.888 25.298 0 0 0-123.192 0-123.192 0 0-203.487 188.088-203.487 188.088 0 0 203.487 181.488 203.487 181.488 0 0 0-107.793 0-107.793 34.098 0 64.895-5.5 94.594-15.399 29.698-9.899 53.897-23.099 73.695-39.598 19.798-16.499 38.498-34.098 53.897-53.897 16.499-18.699 29.698-38.498 39.598-58.296 8.8-19.798 17.599-37.397 24.198-52.797 6.599-16.499 10.999-29.698 13.199-39.598 0 0 3.3-15.399 3.3-15.399z" />
<glyph unicode="&#x2b;" d="M195 126.333c0 0 81 87 81 87s-81 88-81 88c-9 9-9 17 0 25 9 9 17 9 24 0 0 0 99-100 99-100 8-9 8-17 0-25 0 0-99-100-99-100-7-8-15-8-24 0-9 8-9 16 0 25z" />
<glyph unicode="&#x2c;" d="M154 331.333c0 0 204-118 204-118s-204-118-204-118c0 0 0 236 0 236z" />
<glyph unicode="&#x2d;" d="M219 354.333c0 0 116-121 116-121 5-5 8-12 8-20 0-8-3-14-8-19 0 0-116-121-116-121-5-6-12-8-20-8-9 0-15 2-21 8-12 12-12 26 0 41 0 0 95 99 95 99 0 0-95 100-95 100-12 15-12 29 0 41 6 6 13 9 21 9 9 0 15-3 20-9z" />
<glyph unicode="&#x2e;" d="M144 24.333c0 0 183 189 183 189s-183 190-183 190c-9 9-9 18 0 25 8 9 17 9 24 0 0 0 201-202 201-202 8-9 8-17 0-25 0 0-201-202-201-202-7-9-16-9-24 0-9 7-9 16 0 25z" />
<glyph unicode="&#x2f;" d="M248 408.333c0 0 195-195 195-195s-195-195-195-195c0 0 0 99 0 99 0 0-179 0-179 0 0 0 0 193 0 193 0 0 179 0 179 0 0 0 0 98 0 98z" />
<glyph unicode="&#x30;" d="M128 85.333c0 0-123 128-123 128s123 128 123 128c0 0 0-82 0-82 0 0 379 0 379 0 0 0 0-91 0-91 0 0-379 0-379 0 0 0 0-83 0-83z" />
<glyph unicode="&#x31;" d="M317 126.333c9-9 9-17 0-25s-17-8-24 0c0 0-99 100-99 100-8 8-8 16 0 25 0 0 99 100 99 100 7 9 15 9 24 0 9-8 9-16 0-25 0 0-80-88-80-88 0 0 80-87 80-87z" />
<glyph unicode="&#x32;" d="M368 24.333c9-9 9-18 0-25-8-9-17-9-24 0 0 0-201 202-201 202-8 8-8 16 0 25 0 0 201 202 201 202 7 9 16 9 24 0 9-7 9-16 0-25 0 0-183-190-183-190 0 0 183-189 183-189z" />
<glyph unicode="&#x33;" d="M358 331.333c0 0 0-236 0-236s-204 118-204 118c0 0 204 118 204 118z" />
<glyph unicode="&#x34;" d="M293 354.333c4 6 11 9 20 9 8 0 15-3 21-9 13-12 13-26 0-41 0 0-96-100-96-100 0 0 96-99 96-99 13-15 13-29 0-41-6-6-13-8-21-8-8 0-15 2-20 8 0 0-116 121-116 121-6 5-8 11-8 19 0 8 2 15 8 20 70 74 109 114 116 121z" />
<glyph unicode="&#x35;" d="M263 408.333c0 0 0-98 0-98s180 0 180 0c0 0 0-193 0-193 0 0-180 0-180 0 0 0 0-99 0-99 0 0-194 195-194 195 0 0 194 195 194 195z" />
<glyph unicode="&#x36;" d="M263 44.333c0 0-194 169-194 169s194 169 194 169c0 0 0-97 0-97 0 0 180 0 180 0 0 0 0-143 0-143 0 0-180 0-180 0 0 0 0-98 0-98z" />
<glyph unicode="&#x37;" d="M460.587 298.028c20.899-51.696 34.098-100.094 37.397-145.19s-4.399-71.495-21.998-79.195c-10.999-4.399-21.998-4.399-34.098 2.2-13.199 5.5-25.298 13.199-37.397 21.998-12.099 9.899-29.698 17.599-54.996 23.099-25.298 5.5-53.897 7.7-84.695 4.399-9.899-1.101-17.599-4.399-23.099-10.999-5.5-5.5-6.6-12.099-3.3-20.899 7.7-20.899 16.499-40.697 25.298-60.496 2.2-3.3 6.599-7.7 14.3-12.099 7.7-4.399 12.099-8.8 13.199-10.999 5.5-13.199 1.101-21.998-12.099-26.398-18.699-7.7-38.498-15.399-58.297-21.998-10.999-4.399-20.898 3.3-29.698 23.099-12.1 28.598-23.099 53.897-32.998 74.796-2.2 4.399-8.799 7.7-18.699 8.8-10.999 2.2-19.799 7.7-26.398 17.599-10.999-3.3-18.699-6.599-20.898-7.7-13.199-4.399-27.498-2.2-41.797 6.599-15.398 8.8-25.299 20.899-30.798 34.098-5.5 12.099-6.599 26.398-2.2 43.998 3.3 17.599 12.1 29.698 24.198 35.198 47.297 18.699 86.894 39.598 119.892 60.496 31.898 20.899 56.096 40.697 69.296 58.297 14.299 17.599 25.298 34.098 32.998 51.696 8.8 16.499 13.199 30.798 14.3 43.998 1.101 12.1 4.399 23.099 8.8 32.998 4.399 9.899 10.999 16.499 19.798 19.798 18.699 7.7 42.897-5.5 73.695-38.498 30.798-34.098 57.197-76.995 80.295-128.691zM444.087 128.639c3.3 2.2 5.5 8.8 5.5 21.998 1.101 12.099-1.101 30.798-5.5 54.996-5.5 24.198-13.199 48.397-23.099 71.496-10.999 25.298-23.099 48.397-38.498 69.296-14.3 21.999-26.398 37.398-37.397 47.297-9.899 10.999-17.599 14.3-19.798 13.199-3.3-1.101-5.5-8.8-5.5-23.099-1.101-14.3 1.101-34.098 5.5-59.396 4.399-25.298 12.099-50.596 21.998-74.796 10.999-25.298 23.099-47.297 38.498-67.095 15.399-19.798 27.498-34.098 38.498-42.897 9.899-8.8 17.599-12.099 19.798-10.999z" />
<glyph unicode="&#x38;" d="M504 341.333c5-3 8-9 8-15 0 0 0-299 0-299 0-7-3-12-8-16-3-2-6-3-8-3-3 0-6 1-10 3 0 0-110 70-110 70 0 0-111-70-111-70-6-3-12-3-17 0 0 0-112 70-112 70 0 0-110-70-110-70-6-3-12-3-18 0-5 4-8 9-8 16 0 0 0 299 0 299 0 6 3 12 8 15 0 0 120 75 120 75 6 3 12 3 17 0 0 0 111-70 111-70 0 0 112 70 112 70 5 3 11 3 16 0 0 0 120-75 120-75zM120 111.333c0 0 0 259 0 259s-86-54-86-54c0 0 0-259 0-259 0 0 86 54 86 54zM240 57.333c0 0 0 259 0 259s-86 54-86 54c0 0 0-259 0-259 0 0 86-54 86-54zM359 111.333c0 0 0 259 0 259s-87-54-87-54c0 0 0-259 0-259 0 0 87 54 87 54zM478 57.333c0 0 0 259 0 259s-86 54-86 54c0 0 0-259 0-259 0 0 86-54 86-54z" />
<glyph unicode="&#x39;" d="M26.905 342.265c-11.722 6.394-17.049 13.853-14.918 21.311 0 5.328 5.328 7.459 13.852 7.459 0 0 461.386 0 461.386 0 13.853 0 17.049-5.328 10.656-17.049-2.131-5.328-6.394-8.525-12.786-11.722-5.328-2.131-40.492-21.311-104.425-55.409-64.999-35.163-98.031-53.278-99.097-54.343-6.394-3.197-14.918-5.328-25.573-5.328-10.655 0-18.114 2.131-25.573 5.328-1.066 1.066-34.098 19.18-99.097 54.343-63.934 34.098-99.097 53.278-104.425 55.409zM490.423 287.922c7.459 3.197 10.656 1.066 10.656-5.328 0 0 0-201.391 0-201.391 0-5.328-2.131-11.721-8.524-17.049-6.394-6.394-12.786-8.524-18.115-8.524 0 0-436.878 0-436.878 0-5.328 0-11.721 2.131-18.114 8.524-5.328 5.328-8.524 11.721-8.524 17.049 0 0 0 201.391 0 201.391 0 6.394 3.197 8.524 10.655 5.328 0 0 208.849-109.752 208.849-109.752 7.459-3.197 14.917-5.328 25.573-5.328 10.655 0 18.114 2.131 25.573 5.328 0 0 208.849 109.752 208.849 109.752z" />
<glyph unicode="&#x3a;" d="M248 382.333c0 0 195-169 195-169s-195-169-195-169c0 0 0 98 0 98 0 0-179 0-179 0 0 0 0 143 0 143 0 0 179 0 179 0 0 0 0 97 0 97z" />
<glyph unicode="&#x3b;" d="M498.281 39.739c12.489-14.986 13.738-27.475 3.747-39.964 0 0-29.973-29.973-29.973-29.973-14.986-12.489-29.973-12.489-43.711 0 0 0-121.14 122.389-121.14 122.389-31.221-18.733-64.942-27.475-99.909-27.475-54.95 0-102.407 19.982-142.371 61.195-41.213 39.964-61.194 87.421-61.194 142.372 0 54.95 19.982 101.158 57.447 139.874 38.716 38.715 84.924 58.697 139.874 58.697 54.95 0 102.407-19.982 143.62-61.195 39.964-39.964 61.195-87.421 61.195-142.371 0-37.466-9.991-72.435-29.973-103.657 0 0 122.389-119.892 122.389-119.892zM63.674 268.283c0-37.466 14.986-71.185 43.711-99.909s62.444-43.711 99.909-43.711c37.466 0 69.937 13.738 96.163 41.213 27.475 26.226 41.213 58.697 41.213 97.412 0 37.466-14.986 69.936-43.711 98.661-28.724 28.724-62.444 43.711-99.909 43.711-37.466 0-69.936-13.739-96.162-41.213-27.475-26.227-41.213-58.697-41.213-96.162z" />
<glyph unicode="&#x3c;" d="M138 111.333c0 0 118 204 118 204s118-204 118-204c0 0-236 0-236 0z" />
<glyph unicode="&#x3d;" d="M396 177.333c6-5 8-12 8-21 0-8-2-15-8-21-13-13-26-13-40 0 0 0-100 96-100 96 0 0-100-96-100-96-14-13-27-13-40 0-6 6-8 13-8 21 0 9 2 16 8 21 0 0 120 115 120 115 5 5 12 8 20 8 8 0 15-3 20-8 0 0 120-115 120-115z" />
<glyph unicode="&#x3e;" d="M446 100.333c0 0-190 184-190 184s-189-184-189-184c-9-7-18-7-26 0-8 9-8 17 0 26 0 0 203 200 203 200 9 9 17 9 24 0 0 0 203-200 203-200 8-9 8-17 0-26-9-7-17-7-25 0z" />
<glyph unicode="&#x3f;" d="M169 152.333c-9-8-17-8-26 0-8 8-8 16 0 25 0 0 101 97 101 97 9 9 17 9 24 0 0 0 101-97 101-97 8-9 8-17 0-25-9-8-17-8-26 0 0 0-87 80-87 80 0 0-87-80-87-80z" />
<glyph unicode="&#x40;" d="M384 342.333c0 0-83 0-83 0s0-380 0-380c0 0-90 0-90 0 0 0 0 380 0 380 0 0-83 0-83 0 0 0 128 122 128 122 0 0 128-122 128-122z" />
<glyph unicode="&#x41;" d="M193.609-40.485c-15.599 0-29.778 7.090-39.703 19.851 0 0-130.455 171.576-130.455 171.576-8.508 11.344-11.344 24.106-8.508 38.286 1.419 12.763 7.090 24.106 18.434 32.613 9.925 8.508 22.688 12.763 36.867 9.926 14.18-1.419 25.523-8.508 34.031-19.851 0 0 85.078-112.021 85.078-112.021 0 0 215.532 344.57 215.532 344.57 7.090 11.344 18.434 18.434 31.196 21.27 12.763 2.835 25.523 1.419 38.286-5.671 11.344-7.090 18.434-18.434 21.27-31.196 4.255-12.763 1.419-25.523-5.671-38.285 0 0-253.819-406.961-253.819-406.961-9.925-15.599-22.688-22.688-39.703-22.688 0 0-2.835-1.419-2.835-1.419z" />
<glyph unicode="&#x42;" d="M17 179.333c-14 4-20 13-16 29 3 14 12 20 27 16 0 0 50-12 50-12 0 0-26-41-26-41 0 0-35 8-35 8zM472 173.333c4 4 10 6 16 6 7-1 12-3 16-8 11-11 11-22-1-33 0 0-128-115-128-115-5-4-10-6-16-6-5 0-9 2-14 5 0 0-146 112-146 112 0 0-28 8-28 8 0 0 26 40 26 40 0 0 18-4 18-4 4-1 7-2 8-4 0 0 135-104 135-104 0 0 114 103 114 103zM221 285.333c0 0-178-280-178-280-4-8-11-12-20-12-4 0-8 2-12 5-5 3-9 8-10 14-1 7 0 12 3 17 0 0 191 300 191 300 3 6 7 9 14 11 6 2 12 1 19-3 0 0 125-80 125-80 0 0 115 166 115 166 4 6 9 9 15 10 6 1 12-1 17-5 13-8 15-18 6-31 0 0-128-185-128-185-9-12-19-14-32-6 0 0-125 79-125 79z" />
<glyph unicode="&#x43;" d="M224.355 465.321c0 0 0-220.342 0-220.342s-220.343 0-220.343 0c7.032 57.429 31.645 107.827 72.666 148.849 41.022 41.022 90.247 65.634 147.677 71.493zM288.817 465.321c62.118-8.204 113.687-36.334 155.881-83.214 42.194-48.053 63.29-103.139 63.29-167.601 0-69.15-24.613-128.925-73.839-179.322-49.226-49.226-109-73.839-179.321-73.839-64.462 0-119.548 21.096-166.429 63.29-48.053 42.194-76.183 93.763-84.386 157.053 0 0 254.333 0 254.333 0 8.204 0 15.237 3.517 21.096 9.377 5.861 4.688 9.377 11.721 9.377 21.096 0 0 0 253.16 0 253.16z" />
<glyph unicode="&#x44;" d="M452.887 466.317c8.8 0 15.399-2.199 20.899-7.699 4.399-5.5 7.7-12.1 7.7-19.799 0 0 0-478.469 0-478.469 0 0-113.293 0-113.293 0 0 0 0 478.469 0 478.469 0 18.699 7.7 27.499 23.099 27.499 0 0 61.596 0 61.596 0zM284.598 298.028c7.7 0 14.3-3.3 19.798-8.799s7.7-12.1 7.7-19.798c0 0 0-309.080 0-309.080 0 0-112.193 0-112.193 0 0 0 0 309.080 0 309.080 0 18.699 7.7 28.598 21.999 28.598 0 0 62.696 0 62.696 0zM115.21 128.639c8.799 0 15.398-2.2 19.799-7.7 5.5-6.599 8.799-13.199 8.799-19.798 0 0 0-140.791 0-140.791 0 0-113.293 0-113.293 0 0 0 0 140.791 0 140.791 0 18.699 7.7 27.498 23.099 27.498 0 0 61.596 0 61.596 0z" />
<glyph unicode="&#x45;" d="M499 409.333c5 7 8 6 8-2 0 0 0-394 0-394 0 0-494 0-494 0-4 0-6 2-7 4-1 2-1 5 2 9 0 0 118 147 118 147 7 8 14 8 20 1 0 0 38-34 38-34 4-2 7-4 11-3 4 0 7 2 9 5 0 0 81 122 81 122 5 9 12 10 19 2 0 0 57-53 57-53 7-7 14-6 20 2 0 0 118 194 118 194z" />
<glyph unicode="&#x46;" d="M195 359.333c5-4 8-10 8-16s-3-11-8-15c0 0-126-115-126-115 0 0 126-116 126-116 5-4 8-9 8-15 0-6-3-12-8-16-11-11-21-11-31 0 0 0-164 147-164 147 0 0 164 146 164 146 10 11 20 11 31 0zM349 359.333c0 0 163-146 163-146s-163-147-163-147c-11-11-21-11-32 0-10 10-10 21 0 31 0 0 127 116 127 116 0 0-127 115-127 115-10 10-10 21 0 31 11 11 21 11 32 0z" />
<glyph unicode="&#x47;" d="M459.935 213.333c0-29.301 16.407-52.741 48.053-72.666-4.688-16.407-11.721-32.817-19.925-49.226-28.128 7.033-55.086-2.344-82.043-26.957-21.096-23.44-28.128-50.397-19.925-82.043-16.407-7.033-32.817-15.237-50.397-21.096-18.752 32.817-45.709 49.226-79.699 49.226-33.989 0-60.946-16.407-79.699-49.226-17.581 5.861-33.989 14.065-50.398 21.096 8.204 32.817 1.172 59.774-19.924 82.043-21.096 21.096-49.225 28.128-82.043 19.925-4.688 10.548-11.72 26.957-19.924 49.226 32.817 21.096 49.225 48.053 49.225 79.699 0 29.301-16.407 53.913-49.225 73.839 8.204 23.44 15.237 39.849 19.924 49.226 30.473-7.033 57.43 2.343 82.043 26.957 21.096 22.268 28.129 49.225 19.924 82.042 17.581 8.204 33.989 15.237 50.398 19.925 18.752-31.645 45.709-48.053 79.699-48.053 33.989 0 60.946 16.407 79.699 48.053 16.408-4.688 32.817-11.721 50.397-19.925-8.204-31.645-1.173-58.602 19.925-82.042 26.957-24.613 53.913-33.989 82.043-26.957 8.204-16.408 15.237-32.817 19.925-49.226-31.645-19.925-48.053-44.538-48.053-73.839zM256 104.334c30.473 0 56.258 10.548 77.355 31.645s31.645 46.882 31.645 77.355c0 30.473-10.548 56.258-31.645 78.527-21.096 21.096-46.882 31.645-77.355 31.645-30.473 0-56.258-10.548-77.355-31.645-21.096-22.268-31.645-48.053-31.645-78.527 0-30.473 10.548-56.258 31.645-77.355 21.096-21.096 46.882-31.645 77.355-31.645z" />
<glyph unicode="&#x48;" d="M442.316 429.895c16.937 0 31.456-6.050 43.555-18.147s18.147-26.617 18.147-43.555c0 0 0-216.562 0-216.562 0-16.937-6.050-31.456-18.147-43.555-12.099-12.099-26.616-18.147-43.555-18.147 0 0-124.614 0-124.614 0 0 0 0-93.158 0-93.158 0 0-123.404 93.158-123.404 93.158 0 0-124.614 0-124.614 0-15.728 0-30.246 6.050-42.345 18.147-13.309 12.099-19.358 26.616-19.358 43.555 0 0 0 216.562 0 216.562 0 16.937 6.050 31.456 19.358 43.555 12.099 12.099 26.617 18.147 42.345 18.147 0 0 372.633 0 372.633 0z" />
<glyph unicode="&#x49;" d="M451.291 130.448c5.678 7.948 7.948 7.948 7.948-1.136 0 0 0-57.906 0-57.906 0-28.385-20.437-54.5-60.177-78.343-40.875-23.844-88.562-35.198-143.061-35.198-54.5 0-102.187 11.354-141.927 35.198-40.876 23.844-61.312 49.958-61.312 78.343 0 0 0 57.906 0 57.906 0 3.406 0 5.678 2.27 5.678 1.136 1.136 3.407 0 5.678-4.541 12.49-19.302 36.334-36.334 72.667-49.958 36.333-12.49 77.208-19.302 122.625-19.302 45.417 0 86.291 6.813 122.625 19.302 36.334 13.625 60.177 30.656 72.666 49.958zM452.426 278.051c3.406 6.813 5.678 6.813 6.813 0 0 0 0-66.989 0-66.989 0-26.115-19.302-48.822-59.041-65.854-39.74-18.166-87.427-27.25-144.197-27.25-55.635 0-103.322 9.084-143.061 27.25-40.876 17.031-60.177 39.74-60.177 65.854 0 0 0 66.989 0 66.989 0 7.948 2.27 7.948 7.948 0 11.354-17.031 35.198-31.792 71.531-43.146 37.469-11.354 78.343-17.031 123.76-17.031 45.417 0 86.291 5.678 123.76 17.031 36.334 11.354 60.177 26.114 72.666 43.146zM256 468.801c55.635 0 103.322-6.813 143.062-22.708 40.875-14.761 60.177-32.927 60.177-53.364 0 0 0-37.469 0-37.469 0-22.708-19.302-42.011-60.177-57.906-39.74-15.895-87.427-23.844-143.062-23.844-55.635 0-103.322 7.948-143.061 23.844-40.876 15.895-60.177 35.198-60.177 57.906 0 0 0 37.469 0 37.469 0 20.437 19.302 38.604 60.177 53.364 39.739 15.895 87.427 22.708 143.061 22.708z" />
<glyph unicode="&#x4a;" d="M374 315.333c0 0-118-204-118-204s-118 204-118 204c0 0 236 0 236 0z" />
<glyph unicode="&#x4b;" d="M396 250.333c0 0-120-115-120-115-6-6-12-9-20-9-8 0-14 3-20 9 0 0-120 115-120 115-6 5-8 12-8 21 0 8 2 15 8 21 13 13 26 13 40 0 0 0 100-96 100-96 0 0 100 96 100 96 14 13 27 13 40 0 6-6 8-13 8-21 0-9-2-16-8-21z" />
<glyph unicode="&#x4c;" d="M67 326.333c0 0 189-183 189-183s190 183 190 183c8 9 16 9 25 0 9-8 9-16 0-25 0 0-203-201-203-201-7-7-15-7-24 0 0 0-203 201-203 201-9 9-9 17 0 25 8 8 17 8 26 0z" />
<glyph unicode="&#x4d;" d="M344 274.333c8 9 16 9 25 0 9-7 9-15 0-24 0 0-101-98-101-98-7-8-15-8-24 0 0 0-101 98-101 98-9 9-9 17 0 24 9 9 17 9 26 0 0 0 87-79 87-79 0 0 88 79 88 79z" />
<glyph unicode="&#x4e;" d="M384 85.333c0 0-128-123-128-123s-128 123-128 123c0 0 83 0 83 0 0 0 0 379 0 379 0 0 90 0 90 0 0 0 0-379 0-379 0 0 83 0 83 0z" />
<glyph unicode="&#x4f;" d="M384 65.333c0 0 0 28 0 28s51 42 51 42c0 0 0-96 0-96 0-7-2-13-7-18-6-5-12-8-18-8 0 0-384 0-384 0-7 0-13 3-18 8-5 5-8 11-8 18 0 0 0 282 0 282 0 7 2 13 7 18 5 5 11 7 19 7 0 0 147 0 147 0-11-8-21-16-30-25-9-9-16-15-20-20 0 0-5-6-5-6 0 0-67 0-67 0 0 0 0-230 0-230 0 0 333 0 333 0zM342 243.333c-57 0-98-7-124-21s-53-45-82-93c0 3 0 7 1 11 0 5 2 15 4 29 3 14 7 28 12 40 4 13 12 27 22 43 10 16 22 29 36 40 14 12 32 21 55 29 23 8 48 12 76 12 0 0 0 80 0 80 0 0 170-128 170-128 0 0-170-133-170-133 0 0 0 91 0 91z" />
<glyph unicode="&#x50;" d="M420.851 469.352c0 0 91.168-99.909 91.168-99.909s0-348.436 0-348.436c0-16.236-6.245-31.221-18.733-43.711-12.489-13.738-27.475-19.982-44.96-19.982 0 0-384.654 0-384.654 0-16.236 0-31.221 6.245-43.711 19.982-13.739 12.489-19.982 27.475-19.982 43.711 0 0 0 384.654 0 384.654 0 17.483 6.245 32.47 19.982 44.96 12.489 12.489 27.475 18.733 43.711 18.733 0 0 357.178 0 357.178 0zM383.385 277.025c0 0 0 159.855 0 159.855s-254.769 0-254.769 0c0 0 0-159.855 0-159.855 0-8.742 2.497-16.236 8.742-22.48 6.244-6.244 13.738-8.742 22.48-8.742 0 0 192.326 0 192.326 0 8.742 0 16.236 2.497 22.48 8.742 6.245 6.245 8.742 13.738 8.742 22.48zM352.163 405.659c0 0 0-128.634 0-128.634s-63.692 0-63.692 0c0 0 0 128.634 0 128.634 0 0 63.692 0 63.692 0z" />
<glyph unicode="&#x51;" d="M487.226 358.249c5.328 2.131 9.59 2.131 11.721 0 3.197-3.197 3.197-6.394 0-10.655-34.098-50.081-63.933-89.507-89.507-116.146-24.508-27.705-44.753-43.688-59.671-49.016-14.918-5.328-28.77-6.394-39.425-1.066-11.721 4.262-22.377 11.721-33.032 20.245-10.656 8.524-22.377 15.983-34.098 21.311-12.786 6.393-29.835 5.328-51.147-2.131-21.311-7.459-46.885-22.377-75.654-46.885 0 0 49.015-191.8 49.015-191.8 0 0-54.343 0-54.343 0 0 0-100.162 393.19-100.162 393.19 0 0 50.081 18.115 50.081 18.115 31.966 23.442 59.671 39.425 83.114 46.885 22.377 7.459 39.425 7.459 53.278 2.131 12.786-6.393 24.508-15.983 34.098-28.77 10.655-11.721 22.377-24.508 34.098-38.361 12.786-13.852 26.639-24.508 43.688-34.098 15.983-8.524 39.425-12.787 70.327-10.656 29.836 2.131 66.065 10.656 107.621 27.704z" />
<glyph unicode="&#x52;" d="M165.806-39.65c-1.101 1.101 5.5 18.699 19.798 52.797 14.299 32.998 29.698 68.195 43.998 102.293 15.399 34.098 23.099 52.797 21.999 54.996-1.101 2.2-18.699 10.999-52.797 25.298-35.198 14.3-52.797 25.298-54.996 30.798-2.2 4.399 14.299 27.499 47.297 68.195 32.998 40.697 65.996 79.195 101.194 117.692 34.098 37.398 52.797 56.096 53.897 53.897 2.2-1.1-12.099-36.298-41.798-104.493-29.698-68.195-45.097-103.394-43.998-104.493 1.101-1.101 18.699-9.899 53.897-24.198 34.098-14.299 52.797-25.299 53.897-31.898 2.2-7.7-30.798-50.596-97.894-127.591-65.996-78.095-101.194-115.492-104.493-113.293z" />
<glyph unicode="&#x53;" d="M464.916 384.78c27.25-24.979 40.875-55.635 40.875-90.833 0-36.334-13.625-66.989-40.875-91.968 0 0-208.916-191.885-208.916-191.885 0 0-208.916 191.885-208.916 191.885-27.25 24.979-40.876 55.635-40.876 91.968 0 35.198 13.625 65.854 40.876 90.833 23.844 21.572 53.364 32.927 87.427 32.927 34.062 0 63.583-11.354 88.562-32.927 0 0 32.927-30.656 32.927-30.656 0 0 34.062 30.656 34.062 30.656 23.844 21.572 52.228 32.927 86.291 32.927 35.198 0 63.583-11.354 88.562-32.927z" />
<glyph unicode="&#x54;" d="M464.916 383.645c27.25-24.978 40.875-55.635 40.875-90.833 0-36.333-13.625-65.854-40.875-90.833 0 0-208.916-191.885-208.916-191.885 0 0-208.916 191.885-208.916 191.885-27.25 24.979-40.876 54.5-40.876 90.833 0 35.198 13.625 65.854 40.876 90.833 24.978 21.572 53.364 32.927 88.562 32.927 34.062 0 62.447-11.354 86.291-32.927 0 0 34.062-30.656 34.062-30.656 0 0 32.927 30.656 32.927 30.656 24.978 21.572 53.364 32.927 87.427 32.927 35.198 0 63.583-11.354 88.562-32.927zM434.26 231.5c15.895 15.895 23.844 36.334 23.844 61.312s-6.813 44.281-21.572 57.906c-14.761 14.761-35.198 21.573-60.177 21.573-19.302 0-39.74-9.084-60.177-27.25 0 0-60.177-53.364-60.177-53.364 0 0-61.312 53.364-61.312 53.364-19.302 18.166-38.604 27.25-59.041 27.25-24.978 0-45.417-6.813-61.312-21.572-14.761-13.625-21.573-34.062-21.573-57.906 0-26.114 7.948-46.551 24.978-61.312 0 0 178.26-165.77 178.26-165.77 0 0 178.26 165.77 178.26 165.77z" />
<glyph unicode="&#x55;" d="M370.393 433.319c32.998-23.099 48.397-58.296 48.397-104.493 0-23.099-7.7-47.297-23.099-69.296-4.399-7.7-20.899-21.999-49.497-45.097 0 0-26.398-16.499-26.398-16.499-14.3-13.199-23.099-24.198-26.398-34.098-2.2-6.599-4.399-14.3-4.399-25.298 0-4.399-3.3-7.7-8.8-7.7 0 0-72.595 0-72.595 0-5.5 0-8.799 2.2-8.799 6.599 1.101 37.397 6.6 60.496 15.399 70.396 6.6 7.7 15.399 17.599 27.499 26.398 12.1 9.899 21.999 17.599 30.798 24.198 0 0 14.3 7.699 14.3 7.699 7.7 6.6 14.3 12.1 18.699 19.798 10.999 16.499 15.399 28.598 15.399 38.498 0 15.399-4.399 29.698-14.3 43.997-9.899 14.3-27.498 20.899-51.697 20.899-25.298 0-42.897-8.799-52.797-25.298-10.999-15.399-15.399-32.998-15.399-51.697 0 0-93.494 0-93.494 0 2.2 60.496 23.099 104.494 63.796 130.892 26.398 15.399 57.197 23.099 93.494 23.099 48.397 0 89.094-10.999 119.892-32.998zM249.4 74.742c16.499 0 29.698-5.5 40.698-16.499 10.999-12.099 16.499-25.298 15.399-41.798-1.101-17.599-6.599-30.798-17.599-41.798-12.099-9.899-25.298-14.3-41.798-13.199-16.499 0-30.798 5.5-41.798 15.399-9.899 10.999-15.399 25.298-14.299 42.897 0 17.599 6.6 30.798 17.599 40.697 10.999 9.899 25.298 15.399 41.797 14.3z" />
<glyph unicode="&#x56;" d="M252.803 464.805c69.262 0 127.867-23.442 177.948-71.393 49.015-47.95 74.589-106.556 76.72-175.817 0-69.262-23.442-128.932-72.458-177.948-47.95-50.081-106.556-75.654-175.817-77.786-69.262 0-128.932 23.442-177.948 72.458-50.081 47.95-75.654 106.556-76.72 175.817-1.066 69.262 22.377 128.932 71.392 177.948 49.016 50.081 107.621 75.654 176.882 76.72zM251.738 60.959c10.656 0 20.245 3.197 26.639 9.59 6.394 7.459 10.656 15.983 10.656 25.573 0 11.721-2.131 20.245-9.59 27.704-6.394 6.394-15.983 9.59-26.639 9.59 0 0-1.066 0-1.066 0-10.655 0-19.18-3.197-25.573-9.59-7.459-6.394-10.655-14.918-11.721-25.573 0-10.656 3.197-19.18 10.655-26.639 6.393-6.394 14.917-10.656 25.573-10.656 0 0 1.066 0 1.066 0zM342.31 239.972c9.59 11.721 13.853 25.573 13.853 42.622 0 27.705-9.59 49.016-28.77 62.868-19.18 13.852-43.688 20.245-73.524 20.245-23.442 0-42.623-4.262-56.475-13.853-25.573-14.917-38.361-41.556-39.425-79.917 0 0 0-2.131 0-2.131 0 0 59.671 0 59.671 0 0 0 0 2.131 0 2.131 0 9.59 3.197 19.18 8.524 29.835 6.393 8.524 15.983 12.786 29.835 12.786 14.918 0 24.508-3.197 28.77-10.655 5.328-7.459 8.524-14.918 8.524-24.508 0-6.394-3.197-13.852-8.524-21.311-3.197-4.262-7.459-8.524-11.721-10.655 0 0-3.197-2.131-3.197-2.131-2.131-2.131-4.262-4.262-8.524-6.393-3.197-2.131-7.459-5.328-10.655-8.524-4.262-2.131-7.459-5.328-11.721-8.524-4.262-3.197-7.459-6.394-9.59-9.59-4.262-7.459-7.459-21.311-9.59-42.623 0 0 0-4.262 0-4.262 0 0 59.671 0 59.671 0 0 0 0 2.131 0 2.131 0 4.262 0 9.59 2.131 14.918 2.131 7.459 6.394 13.853 14.918 20.245 0 0 14.918 9.59 14.918 9.59 17.049 12.787 26.639 21.311 30.901 27.705z" />
<glyph unicode="&#x57;" d="M144.65 469.27c46.534 0 68.139-23.267 68.139-68.139 0 0 0-76.448 0-76.448 0-46.534-21.605-68.139-68.139-68.139 0 0-76.448 0-76.448 0-44.873 0-68.139 21.605-68.139 68.139 0 0 0 76.448 0 76.448 0 44.873 23.267 68.139 68.139 68.139 0 0 76.448 0 76.448 0zM443.796 469.27c44.873 0 68.139-23.267 68.139-68.139 0 0 0-76.448 0-76.448 0-46.534-23.267-68.139-68.139-68.139 0 0-76.448 0-76.448 0-46.534 0-68.139 21.605-68.139 68.139 0 0 0 76.448 0 76.448 0 44.873 21.605 68.139 68.139 68.139 0 0 76.448 0 76.448 0zM144.65 170.124c46.534 0 68.139-21.605 68.139-68.139 0 0 0-76.448 0-76.448 0-44.873-21.605-68.139-68.139-68.139 0 0-76.448 0-76.448 0-44.873 0-68.139 23.267-68.139 68.139 0 0 0 76.448 0 76.448 0 46.534 23.267 68.139 68.139 68.139 0 0 76.448 0 76.448 0zM443.796 170.124c44.873 0 68.139-21.605 68.139-68.139 0 0 0-76.448 0-76.448 0-44.873-23.267-68.139-68.139-68.139 0 0-76.448 0-76.448 0-46.534 0-68.139 23.267-68.139 68.139 0 0 0 76.448 0 76.448 0 46.534 21.605 68.139 68.139 68.139 0 0 76.448 0 76.448 0z" />
<glyph unicode="&#x58;" d="M252.803 464.805c69.262 0 127.867-23.442 177.948-71.393 49.015-47.95 74.589-106.556 76.72-175.817 0-69.262-23.442-128.932-72.458-177.948-47.95-50.081-106.556-75.654-175.817-77.786-69.262 0-128.932 23.442-177.948 72.458-50.081 47.95-75.654 106.556-76.72 175.817-1.066 69.262 22.377 128.932 71.392 177.948 49.016 50.081 107.621 75.654 176.882 76.72zM252.803 431.772c-34.098 0-67.13-8.524-96.966-24.508 0 0 34.098-56.474 34.098-56.474 20.245 10.655 41.556 14.917 66.065 14.917 24.508 0 45.819-4.262 66.065-14.917 0 0 34.098 56.474 34.098 56.474-31.966 17.049-66.065 24.508-103.359 24.508zM118.543 147.269c-10.656 21.311-14.918 43.688-14.918 66.065 0 23.442 4.262 45.819 14.918 67.131 0 0-55.409 34.098-55.409 34.098-17.049-31.966-25.573-66.064-25.573-103.359 1.066-35.163 9.59-68.195 25.573-98.031 0 0 55.409 34.098 55.409 34.098zM259.197-5.106c36.229 2.131 68.195 9.59 96.966 25.573 0 0-34.098 56.474-34.098 56.474-21.311-10.656-43.688-15.983-66.065-15.983-22.377 0-44.754 5.328-66.065 15.983 0 0-34.098-56.474-34.098-56.474 30.901-17.049 66.065-25.573 103.359-25.573zM256 92.926c33.033 0 61.803 11.721 85.245 36.229 23.442 23.442 35.163 51.147 35.163 84.179 0 33.032-11.721 61.803-35.163 85.244-23.442 23.442-52.212 35.163-85.245 35.163-33.032 0-61.803-11.721-85.245-35.163-23.442-23.442-35.163-52.212-35.163-85.245 0-33.032 11.721-60.736 35.163-84.179 23.442-24.508 52.212-36.229 85.245-36.229zM393.457 147.269c0 0 56.474-34.098 56.474-34.098 17.049 35.163 24.508 69.262 24.508 103.359 0 35.164-8.524 68.196-24.508 98.031 0 0-56.474-34.098-56.474-34.098 10.656-21.311 14.918-43.687 14.918-67.13 0-22.377-4.262-44.753-14.918-66.065z" />
<glyph unicode="&#x59;" d="M141 213.333c0 0 0-46 0-46s-103 82-103 82c0 0 103 87 103 87 0 0 0-51 0-51 0 0 281 0 281 0 14 0 26-5 36-15 10-10 16-22 16-37 0 0 0-143 0-143 0 0-72 0-72 0 0 0 0 123 0 123 0 0-261 0-261 0z" />
<glyph unicode="&#x5a;" d="M117 136.333c-15 0-27 5-37 16-10 10-14 22-14 35 0 0 0 180 0 180 0 0 71 0 71 0 0 0 0-159 0-159 0 0 187 0 187 0 0 0 0 77 0 77 0 0 122-113 122-113 0 0-122-113-122-113 0 0 0 77 0 77 0 0-207 0-207 0z" />
<glyph unicode="&#x5b;" d="M389 287.333c34 0 63-12 87-35s36-52 36-85c0-34-12-62-36-85-24-23-53-35-87-35 0 0-97 0-97 0 0 0 0 97 0 97 0 0 54 0 54 0 0 0-90 118-90 118 0 0-89-118-89-118 0 0 53 0 53 0 0 0 0-97 0-97 0 0-127 0-127 0-25 0-47 9-65 27-19 17-28 39-28 63 0 25 9 47 27 65 18 17 40 26 66 26 5 0 8 0 10-1 0 4-1 11-1 20 0 37 14 68 40 94 27 26 59 39 97 39 30 0 58-9 82-27 23-17 39-40 48-68 9 1 16 2 20 2z" />
<glyph unicode="&#x5c;" d="M461 367.333c14 0 26-6 36-16s15-22 15-36c0 0 0-281 0-281 0-15-5-27-15-37-10-9-22-14-36-14 0 0-26 0-26 0 0 0 0 384 0 384 0 0 26 0 26 0zM0 315.333c0 14 5 26 15 36 11 10 23 16 36 16 0 0 26 0 26 0 0 0 0-384 0-384 0 0-26 0-26 0-13 0-25 5-36 14-10 10-15 22-15 37 0 0 0 281 0 281zM343 420.333c0 0 0-53 0-53s56 0 56 0c0 0 0-384 0-384 0 0-286 0-286 0 0 0 0 384 0 384 0 0 56 0 56 0 0 0 0 53 0 53 33 16 62 23 87 23 25 0 54-7 87-23zM312 367.333c0 0 0 33 0 33-17 9-36 13-56 13-18 0-37-4-56-13 0 0 0-33 0-33 0 0 112 0 112 0z" />
<glyph unicode="&#x5d;" d="M256 431.333c0 0 133-125 133-125s-84 0-84 0c0 0 0-131 0-131 0 0-97 0-97 0 0 0 0 131 0 131 0 0-85 0-85 0 0 0 133 125 133 125zM495 135.333c7-3 11-9 14-16 3-8 4-15 2-21 0 0-14-79-14-79-2-6-6-12-12-16-6-5-13-7-20-7 0 0-418 0-418 0-8 0-14 2-21 7-6 4-9 10-11 16 0 0-14 79-14 79-4 17 2 29 16 37 0 0 81 55 81 55 0 0 50 0 50 0 0 0-87-66-87-66 0 0 91 0 91 0 3 0 5-1 7-4 0 0 20-57 20-57 0 0 154 0 154 0 0 0 20 57 20 57 3 3 5 4 6 4 0 0 91 0 91 0 0 0-87 66-87 66 0 0 51 0 51 0 0 0 81-55 81-55z" />
<glyph unicode="&#x5e;" d="M461 418.333c14 0 26-5 36-15s15-22 15-36c0 0 0-308 0-308 0-13-5-25-15-35-10-11-22-16-36-16 0 0-410 0-410 0-13 0-25 5-36 16-10 10-15 22-15 35 0 0 0 308 0 308 0 14 5 26 15 36 11 10 23 15 36 15 0 0 410 0 410 0zM461 59.333c0 0 0 308 0 308s-410 0-410 0c0 0 0-308 0-308 0 0 410 0 410 0zM230 160.333c0 0 0-46 0-46s-128 0-128 0c0 0 0 46 0 46 0 0 128 0 128 0zM230 237.333c0 0 0-47 0-47s-128 0-128 0c0 0 0 47 0 47 0 0 128 0 128 0zM230 313.333c0 0 0-46 0-46s-128 0-128 0c0 0 0 46 0 46 0 0 128 0 128 0zM408 150.333c0 0 2-36 2-36s-128 0-128 0c0 24 1 36 3 36 28 7 43 18 43 33 0 6-5 15-14 29-9 14-14 29-14 45 0 38 15 56 46 56 31 0 46-18 46-56 0-16-5-31-14-45-10-14-14-23-14-29 0-7 3-13 10-18 7-6 15-9 22-11 0 0 12-4 12-4z" />
<glyph unicode="&#x5f;" d="M512-11.667c0 0-115 0-115 0s0 77 0 77c0 18-5 32-15 41-10 9-37 24-79 46 14 10 21 24 21 43 0 5-3 11-7 16-5 6-8 15-10 27 0 2-3 5-7 8-4 2-6 10-7 21 0 8 2 14 6 16-2 11-3 21-4 30-1 13 2 27 12 40 9 14 25 21 48 21 24 0 40-7 49-21 10-13 14-27 13-40 0 0-4-30-4-30 4-2 6-8 6-16-1-11-3-19-7-21-4-3-7-6-8-8-2-12-5-21-9-27-5-5-7-11-7-16 0-15 4-26 11-34 7-8 20-17 39-25 39-16 61-29 67-41 2-2 3-13 4-31 1-18 2-35 3-52 0 0 0-24 0-24zM262 122.333c62-27 93-48 93-64 0 0 0-70 0-70 0 0-355 0-355 0 0 0 0 94 0 94 0 15 14 28 43 40 26 11 44 22 53 33 10 11 15 26 15 45 0 7-4 14-10 22-7 8-11 20-13 35-1 3-4 7-9 11-6 4-9 14-10 29 0 5 0 9 1 12 1 3 2 5 4 6 0 0 2 1 2 1-2 16-4 30-5 42-2 17 4 35 17 53 12 18 34 27 65 27 30 0 52-9 65-27 12-18 18-36 16-53 0 0-5-42-5-42 5-2 8-9 8-19-2-15-5-25-11-29-5-4-8-8-9-11-2-15-6-27-13-35-6-8-9-15-9-22 0-19 4-34 14-45 9-11 27-22 53-33z" />
<glyph unicode="&#x60;" d="M317 99.333c62-22 93-42 93-62 0 0 0-54 0-54 0 0-410 0-410 0 0 0 0 103 0 103 12 5 26 9 42 13 32 12 54 24 66 36 12 12 18 28 18 48 0 8-4 16-12 25-8 9-13 21-16 38 0 4-4 8-11 13-8 4-12 14-13 31 0 5 1 10 2 13 2 4 4 6 5 6 0 0 2 2 2 2-3 17-5 32-6 45-2 19 5 38 20 58 16 19 43 29 82 29 39 0 66-10 82-29 16-20 23-39 22-58 0 0-8-45-8-45 7-2 10-10 10-21-1-10-3-17-5-22-2-5-5-8-7-9-2-1-5-2-7-4-3-2-4-5-5-9-3-16-9-28-17-38-8-9-12-17-12-25 0-20 7-36 19-48 12-12 34-24 66-36zM435 239.333c0 0 77 0 77 0s0-52 0-52c0 0-77 0-77 0 0 0 0-76 0-76 0 0-51 0-51 0 0 0 0 76 0 76 0 0-77 0-77 0 0 0 0 52 0 52 0 0 77 0 77 0 0 0 0 76 0 76 0 0 51 0 51 0 0 0 0-76 0-76z" />
<glyph unicode="&#x61;" d="M299.711 466.854c-113.647 0-204.815-92.416-204.815-204.815 0-38.716 9.991-74.933 28.724-106.154l-98.661-98.661c-9.991-9.991-17.483-24.977-17.483-41.213 0-31.221 26.227-56.199 57.447-56.199 14.986 0 29.972 6.245 39.965 17.483v-1.25l102.407 102.407c27.475-13.738 58.697-21.231 92.416-21.231 112.399 0 204.815 91.168 204.815 204.815 0 112.398-92.416 204.815-204.815 204.815zM300.96 138.401c-71.185 0-128.634 56.199-128.634 127.386 0 69.936 57.447 127.385 128.634 127.385 69.936 0 127.385-57.447 127.385-127.385 0-71.185-57.447-127.386-127.385-127.386zM375.892 295.759v0h-44.96v44.96c0 6.245-4.995 9.991-9.991 9.991 0 0-1.25 0-1.25 0h-38.716c0 0 0 0 0 0-6.245 0-9.991-3.747-9.991-9.991 0 0 0 0 0-1.25v-43.711h-46.209c-4.995 0-9.991-4.995-9.991-9.991v-39.964c0-6.244 4.995-9.991 9.991-9.991 1.25 0 1.25 0 1.25 0h44.96l-1.25-44.96h1.25c0 0 0 0 0 0 0-6.245 3.747-9.991 9.991-9.991 0 0 0 0 0 0v0h39.964c4.995 0 9.991 3.747 9.991 9.991v0 44.96h44.96c0 0 0 0 0 0 4.995 0 9.991 3.747 9.991 9.991v39.965c0 4.995-4.995 9.991-9.991 9.991z" />
<glyph unicode="&#x62;" d="M299.711 472.188c-113.647 0-204.815-92.416-204.815-204.815 0-38.715 9.991-74.932 28.724-106.154l-98.661-98.661c-9.991-9.991-17.483-24.977-17.483-41.213 0-31.221 26.227-56.199 57.447-56.199 14.986 0 29.972 6.245 39.965 17.483v-1.25l102.407 102.407c27.475-13.738 58.697-21.231 92.416-21.231 112.399 0 204.815 91.168 204.815 204.815 0 112.399-92.416 204.815-204.815 204.815zM300.96 143.734c-71.185 0-128.634 56.199-128.634 127.385 0 69.937 57.447 127.386 128.634 127.386 69.936 0 127.385-57.448 127.385-127.386 0-71.185-57.447-127.385-127.385-127.385zM375.892 301.093h-151.113c-4.995 0-9.991-4.995-9.991-9.991v-39.965c0-6.244 4.995-9.991 9.991-9.991h151.113c4.995 0 9.991 3.747 9.991 9.991v39.965c0 4.995-4.995 9.991-9.991 9.991z" />
<glyph unicode="&#x63;" d="M386.892 256.23c5.5-13.199 13.199-23.099 21.998-29.698 9.899-6.6 17.599-10.999 25.298-12.1 8.8-1.101 16.499-5.5 25.298-13.199 8.8-6.599 15.399-17.599 19.798-30.798 7.7-23.099-5.5-53.897-41.798-90.194-36.298-37.397-83.594-67.095-141.891-89.094-61.596-21.998-117.692-29.698-167.189-25.298-49.497 5.5-79.195 18.699-86.894 42.897-7.7 19.798-5.5 40.697 6.599 61.596 12.099 21.998 15.398 42.897 9.899 62.695-20.898 72.595-29.698 128.692-26.398 169.389 3.3 40.697 24.198 76.995 63.796 107.793 9.9 8.799 15.398 17.599 16.499 28.598 1.1 10.999 6.6 18.699 15.398 21.999 9.9 3.3 17.599 1.1 26.398-6.6 7.7-7.7 18.699-10.999 31.898-9.899 49.497 1.101 85.795-12.1 111.093-37.398 25.298-25.298 54.996-75.895 90.194-150.69zM282.398 28.545c32.998 12.099 62.695 27.498 89.094 48.397 26.398 19.798 45.097 36.298 56.096 50.596 10.999 14.3 15.399 24.198 14.3 28.598-3.3 7.7-12.099 14.3-27.498 18.699-15.399 3.3-38.498 4.399-69.296 0-31.898-3.3-67.095-12.099-105.594-26.398-38.498-14.3-71.495-30.798-97.894-49.497-26.398-18.699-43.998-34.098-52.797-47.297-8.799-13.199-12.1-23.099-9.9-29.698 2.2-4.399 10.999-8.8 28.598-12.099 17.599-4.399 42.897-4.399 75.895-2.2 32.998 2.2 65.996 8.8 98.993 20.899zM247.201 126.439c3.3 1.101 6.6 2.2 12.1 4.399 4.399 1.101 7.7 3.3 8.8 3.3 0 0 1.101-1.101 1.101-1.101 5.5-14.3 2.2-30.798-8.8-46.197-12.1-16.499-28.598-28.598-50.596-35.198-36.298-14.3-64.895-10.999-85.794 7.7 29.698 25.298 70.395 47.297 123.192 67.095z" />
<glyph unicode="&#x64;" d="M85 156.333c0 0 171-86 171-86s141 69 141 69c-1-7-2-15-4-24-1-8-2-14-3-18-1-3-2-7-5-11-4-5-8-9-13-12-5-4-13-7-23-12-13-6-27-13-41-21-13-7-24-13-32-17-8-4-15-6-20-6-5 0-12 3-20 7-9 5-20 11-33 19-14 8-28 15-41 21-25 10-42 22-53 35-11 12-19 31-24 56zM500 282.333c8-5 12-11 12-17 0-7-4-12-12-17 0 0-40-23-40-23 0 0-158 53-158 53-7 12-23 18-46 18-14 0-25-3-34-8-10-6-14-13-14-21 0-8 4-15 14-20 9-6 20-8 34-8 9 0 15 0 18 2 0 0 150-35 150-35 0 0-137-78-137-78-21-11-41-11-62 0 0 0-213 120-213 120-8 5-12 10-12 17 0 6 4 12 12 17 0 0 213 119 213 119 21 11 41 11 62 0 0 0 213-119 213-119zM434 55.333c6 40 9 71 7 93-2 23-5 38-10 47 0 0-7 11-7 11 0 0 36 19 36 19 2-2 4-7 6-14 2-7 5-24 9-52 3-27 2-61-4-101-1-9-5-14-11-15-6-1-12 0-18 3-6 3-9 6-8 9z" />
<glyph unicode="&#x65;" d="M425.389 466.317c15.399 0 28.598-5.5 39.598-15.398 10.999-10.999 16.499-24.198 16.499-40.698 0 0 0-393.775 0-393.775 0-15.399-5.5-28.598-16.499-39.598-10.999-10.999-24.198-16.499-39.598-16.499 0 0-338.779 0-338.779 0-14.299 0-27.498 5.5-38.498 16.499-12.099 10.999-17.599 24.198-17.599 39.598 0 0 0 393.775 0 393.775 0 16.499 5.5 29.698 17.599 40.697 10.999 9.9 24.198 15.399 38.498 15.399 0 0 338.779 0 338.779 0zM425.389 16.446c0 0 0 393.775 0 393.775s-338.779 0-338.779 0c0 0 0-393.775 0-393.775 0 0 338.779 0 338.779 0zM284.598 157.237c0 0 0-28.598 0-28.598s-140.791 0-140.791 0c0 0 0 28.598 0 28.598 0 0 140.791 0 140.791 0zM368.193 269.429c0 0 0-27.499 0-27.499s-112.193 0-112.193 0c0 0 0 27.499 0 27.499 0 0 112.193 0 112.193 0zM256 298.028c0 0 0 56.096 0 56.096s112.193 0 112.193 0c0 0 0-56.096 0-56.096 0 0-112.193 0-112.193 0zM227.402 354.124c0 0 0-112.193 0-112.193s-83.594 0-83.594 0c0 0 0 112.193 0 112.193 0 0 83.594 0 83.594 0zM199.904 213.333c0 0 0-28.598 0-28.598s-56.096 0-56.096 0c0 0 0 28.598 0 28.598 0 0 56.096 0 56.096 0zM227.402 184.735c0 0 0 28.598 0 28.598s140.791 0 140.791 0c0 0 0-28.598 0-28.598 0 0-140.791 0-140.791 0zM368.193 101.14c0 0 0-28.598 0-28.598s-224.386 0-224.386 0c0 0 0 28.598 0 28.598 0 0 224.386 0 224.386 0zM312.096 128.639c0 0 0 28.598 0 28.598s56.096 0 56.096 0c0 0 0-28.598 0-28.598 0 0-56.096 0-56.096 0z" />
<glyph unicode="&#x66;" d="M74.499 104.149c9.925 0 18.434-2.835 25.523-9.925 7.090-8.508 11.344-17.015 11.344-25.523 0-9.925-4.255-18.434-11.344-25.523-7.090-7.090-15.599-11.344-25.523-11.344 0 0-36.867 0-36.867 0-8.508 0-17.015 4.255-25.523 11.344-7.090 7.090-9.925 15.599-9.925 25.523 0 8.508 2.835 17.015 9.925 25.523 7.090 7.090 15.598 9.925 25.523 9.925 0 0 36.867 0 36.867 0zM74.499 250.2c9.925 0 18.434-4.255 25.523-11.344s11.344-15.599 11.344-25.523c0-9.925-4.255-18.434-11.344-25.523-7.090-7.090-15.599-11.344-25.523-11.344 0 0-36.867 0-36.867 0-8.508 0-17.015 4.255-25.523 11.344-7.090 7.090-9.925 15.599-9.925 25.523 0 9.925 2.835 18.434 9.925 25.523 7.090 7.090 15.598 11.344 25.523 11.344 0 0 36.867 0 36.867 0zM74.499 394.834c9.925 0 18.434-4.255 25.523-11.344s11.344-15.599 11.344-25.523c0-8.508-4.255-17.016-11.344-25.523-7.090-7.090-15.599-9.925-25.523-9.925 0 0-36.867 0-36.867 0-8.508 0-17.015 2.835-25.523 9.925-7.090 8.508-9.925 17.015-9.925 25.523 0 9.925 2.835 18.434 9.925 25.523 7.090 7.090 15.598 11.344 25.523 11.344 0 0 36.867 0 36.867 0zM219.133 322.517c-8.508 0-17.016 2.835-25.523 9.925-7.090 8.508-9.925 17.016-9.925 25.523 0 9.926 2.835 18.434 9.925 25.523 8.508 7.090 17.016 11.344 25.523 11.344 0 0 255.237 0 255.237 0 9.925 0 18.434-4.255 25.523-11.344 7.090-7.090 9.925-15.599 9.925-25.523 0-8.508-2.835-17.015-9.925-25.523-8.508-7.090-17.015-9.925-25.523-9.925 0 0-255.237 0-255.237 0zM474.369 250.2c9.925 0 18.434-4.255 25.523-11.344s9.925-15.599 9.925-25.523c0-9.925-2.835-18.434-9.925-25.523-8.508-7.090-17.015-11.344-25.523-11.344 0 0-255.237 0-255.237 0-8.508 0-17.016 4.255-25.523 11.344-7.090 7.090-9.925 15.599-9.925 25.523 0 9.925 2.835 18.434 9.925 25.523 8.508 7.090 17.016 11.344 25.523 11.344 0 0 255.237 0 255.237 0zM474.369 104.149c9.925 0 18.434-2.835 25.523-9.925 7.090-8.508 9.925-17.015 9.925-25.523 0-9.925-2.835-18.434-9.925-25.523-8.508-7.090-17.015-11.344-25.523-11.344 0 0-255.237 0-255.237 0-8.508 0-17.016 4.255-25.523 11.344-7.090 7.090-9.925 15.599-9.925 25.523 0 8.508 2.835 17.015 9.925 25.523 8.508 7.090 17.016 9.925 25.523 9.925 0 0 255.237 0 255.237 0z" />
<glyph unicode="&#x67;" d="M474.369 250.2c9.925 0 18.434-4.255 25.523-11.344s9.925-15.599 9.925-25.523c0-9.925-2.835-18.434-9.925-25.523-8.508-7.090-17.015-11.344-25.523-11.344 0 0-436.74 0-436.74 0-8.508 0-17.015 4.255-25.523 11.344-7.090 7.090-9.925 15.599-9.925 25.523 0 9.925 2.835 18.434 9.925 25.523 7.090 7.090 15.598 11.344 25.523 11.344 0 0 436.74 0 436.74 0zM37.631 322.517c-8.508 0-17.015 2.835-25.523 9.925-7.090 8.508-9.925 17.016-9.925 25.523 0 9.926 2.835 18.434 9.925 25.523 7.090 7.090 15.598 11.344 25.523 11.344 0 0 436.74 0 436.74 0 9.925 0 18.434-4.255 25.523-11.344 7.090-7.090 9.925-15.599 9.925-25.523 0-8.508-2.835-17.015-9.925-25.523-8.508-7.090-17.015-9.925-25.523-9.925 0 0-436.74 0-436.74 0zM474.369 104.149c9.925 0 18.434-2.835 25.523-9.925 7.090-8.508 9.925-17.015 9.925-25.523 0-9.925-2.835-18.434-9.925-25.523-8.508-7.090-17.015-11.344-25.523-11.344 0 0-436.74 0-436.74 0-8.508 0-17.015 4.255-25.523 11.344-7.090 7.090-9.925 15.599-9.925 25.523 0 8.508 2.835 17.015 9.925 25.523 7.090 7.090 15.598 9.925 25.523 9.925 0 0 436.74 0 436.74 0z" />
<glyph unicode="&#x68;" d="M194.404 150.638c0 0 0-38.498 0-38.498s-113.293 45.097-113.293 45.097c0 0 0 38.498 0 38.498 0 0 113.293-45.097 113.293-45.097zM194.404 267.23c0 0 0-38.497 0-38.497s-113.293 45.097-113.293 45.097c0 0 0 38.498 0 38.498 0 0 113.293-45.097 113.293-45.097zM496.885 461.918c8.8-4.399 12.099-12.099 12.099-23.099 0 0 0-360.777 0-360.777 0-12.099-5.5-20.899-17.599-25.298 0 0-224.385-90.194-224.385-90.194-2.2-1.101-4.399-1.101-5.5-1.101-1.101 0-1.101-1.101-2.2-1.101-1.101 0-2.2 0-3.3 0-1.101 0-2.2 0-3.3 0-1.101 0-1.101 1.101-2.2 1.101 0 0-5.5 1.101-5.5 1.101 0 0-224.386 90.194-224.386 90.194-12.1 4.399-17.599 13.199-17.599 25.298 0 0 0 360.777 0 360.777 0 10.999 3.3 18.699 12.1 23.099 7.699 6.599 16.499 7.7 25.298 3.3 0 0 215.586-85.794 215.586-85.794 0 0 215.586 85.794 215.586 85.794 8.8 4.4 17.599 3.3 25.298-3.3zM227.402 18.646c0 0 0 315.68 0 315.68s-179.288 71.495-179.288 71.495c0 0 0-315.68 0-315.68 0 0 179.288-71.495 179.288-71.495zM463.887 90.141c0 0 0 315.68 0 315.68s-179.288-71.495-179.288-71.495c0 0 0-315.68 0-315.68 0 0 179.288 71.495 179.288 71.495zM430.889 195.734c0 0 0-38.498 0-38.498s-113.293-45.097-113.293-45.097c0 0 0 38.498 0 38.498 0 0 113.293 45.097 113.293 45.097zM430.889 312.327c0 0 0-38.498 0-38.498s-113.293-45.097-113.293-45.097c0 0 0 38.497 0 38.497 0 0 113.293 45.097 113.293 45.097z" />
<glyph unicode="&#x69;" d="M177.905 189.135c0 0 0 51.697 0 51.697s158.389 0 158.389 0c0 0 0-51.697 0-51.697 0 0-158.389 0-158.389 0zM396.791 466.317c15.399 0 28.598-5.5 39.598-15.398 10.999-10.999 16.499-24.198 16.499-40.698 0 0 0-393.775 0-393.775 0-15.399-5.5-28.598-16.499-39.598-10.999-10.999-24.198-16.499-39.598-16.499 0 0-281.582 0-281.582 0-15.398 0-28.598 5.5-39.598 16.499-10.999 10.999-16.499 24.198-16.499 39.598 0 0 0 393.775 0 393.775 0 16.499 5.5 29.698 16.499 40.697 10.999 9.9 24.198 15.399 39.598 15.399 0 0 281.582 0 281.582 0zM396.791 16.446c0 0 0 393.775 0 393.775s-281.582 0-281.582 0c0 0 0-393.775 0-393.775 0 0 281.582 0 281.582 0zM335.195 349.724c0 0 0-49.497 0-49.497s-158.389 0-158.389 0c0 0 0 49.497 0 49.497 0 0 158.389 0 158.389 0zM335.195 128.639c0 0 0-49.497 0-49.497s-158.389 0-158.389 0c0 0 0 49.497 0 49.497 0 0 158.389 0 158.389 0z" />
<glyph unicode="&#x6a;" d="M396.791 466.317c15.399 0 28.598-5.5 39.598-15.398 10.999-10.999 16.499-24.198 16.499-40.698 0 0 0-393.775 0-393.775 0-15.399-5.5-28.598-16.499-39.598-10.999-10.999-24.198-16.499-39.598-16.499 0 0-281.582 0-281.582 0-15.398 0-28.598 5.5-39.598 16.499-10.999 10.999-16.499 24.198-16.499 39.598 0 0 0 393.775 0 393.775 0 16.499 5.5 29.698 16.499 40.697 10.999 9.9 24.198 15.399 39.598 15.399 0 0 281.582 0 281.582 0zM137.207 349.724c0 0 0-49.497 0-49.497s237.584 0 237.584 0c0 0 0 49.497 0 49.497 0 0-237.584 0-237.584 0zM374.793 79.142c0 0 0 49.497 0 49.497s-237.584 0-237.584 0c0 0 0-49.497 0-49.497 0 0 237.584 0 237.584 0zM374.793 189.135c0 0 0 51.697 0 51.697s-235.385 0-235.385 0c0 0 0-51.697 0-51.697 0 0 235.385 0 235.385 0z" />
<glyph unicode="&#x6b;" d="M495 135.333c7-3 11-9 14-16 3-8 4-15 2-21 0 0-14-79-14-79-2-6-6-12-12-16-6-5-13-7-20-7 0 0-418 0-418 0-8 0-14 2-21 7-6 4-9 10-11 16 0 0-14 79-14 79-4 17 2 29 16 37 0 0 81 55 81 55 0 0 50 0 50 0 0 0-87-66-87-66 0 0 91 0 91 0 3 0 5-1 7-4 0 0 20-57 20-57 0 0 154 0 154 0 0 0 20 57 20 57 3 3 5 4 6 4 0 0 91 0 91 0 0 0-87 66-87 66 0 0 51 0 51 0 0 0 81-55 81-55zM389 300.333c0 0-133-125-133-125s-133 125-133 125c0 0 85 0 85 0 0 0 0 131 0 131 0 0 97 0 97 0 0 0 0-131 0-131 0 0 84 0 84 0z" />
<glyph unicode="&#x6c;" d="M442.316 461.351c16.937 0 31.456-6.050 43.555-18.147s18.147-26.617 18.147-43.555c0 0 0-372.633 0-372.633 0-15.728-6.050-30.246-18.147-42.345-12.099-13.309-26.616-19.358-43.555-19.358 0 0-372.633 0-372.633 0-15.728 0-30.246 6.050-42.345 19.358-13.309 12.099-19.358 26.616-19.358 42.345 0 0 0 372.633 0 372.633 0 16.937 6.050 31.456 19.358 43.555 12.099 12.099 26.617 18.148 42.345 18.148 0 0 372.633 0 372.633 0zM351.578 65.732c0 0 53.233 53.233 53.233 53.233s-95.578 94.368-95.578 94.368c0 0 95.578 95.578 95.578 95.578 0 0-53.233 53.233-53.233 53.233 0 0-95.578-94.368-95.578-94.368 0 0-94.368 94.368-94.368 94.368 0 0-54.443-53.233-54.443-53.233 0 0 95.578-95.578 95.578-95.578 0 0-95.578-94.368-95.578-94.368 0 0 54.443-53.233 54.443-53.233 0 0 94.368 94.368 94.368 94.368 0 0 95.578-94.368 95.578-94.368z" />
<glyph unicode="&#x6d;" d="M256 465.321c69.15 0 128.924-24.613 178.149-73.839s73.839-108.999 73.839-178.149c0-69.15-24.613-128.924-73.839-178.149-49.226-49.226-109-73.839-178.149-73.839-69.15 0-128.924 24.613-178.149 73.839-49.225 49.226-73.839 109-73.839 178.149 0 69.15 24.613 128.925 73.839 178.149 49.225 49.225 109 73.839 178.149 73.839zM307.57 213.333c0 0 92.591 92.591 92.591 92.591s-51.57 51.569-51.57 51.569c0 0-92.591-91.419-92.591-91.419 0 0-91.419 91.419-91.419 91.419 0 0-52.742-51.569-52.742-51.569 0 0 92.591-92.591 92.591-92.591 0 0-92.591-91.419-92.591-91.419 0 0 52.742-51.57 52.742-51.57 0 0 91.419 91.419 91.419 91.419 0 0 92.591-91.419 92.591-91.419 0 0 51.57 51.57 51.57 51.57 0 0-92.591 91.419-92.591 91.419z" />
<glyph unicode="&#x6e;" d="M465.454 62.375c11.322-11.322 16.983-24.531 16.983-41.515 0-15.096-5.663-30.192-16.983-41.515-11.322-9.434-24.531-15.096-41.515-15.096-15.096 0-30.192 5.663-41.515 15.096 0 0-128.315 147.185-128.315 147.185 0 0-126.428-147.185-126.428-147.185-11.323-9.434-26.416-15.096-41.515-15.096-16.984 0-30.192 5.663-41.515 15.096-11.322 11.322-15.096 26.416-15.096 41.515 0 16.983 3.773 30.192 15.096 41.515 0 0 133.975 150.958 133.975 150.958 0 0-133.975 152.844-133.975 152.844-11.322 11.322-15.096 24.531-15.096 41.515 0 15.096 3.773 30.193 15.096 41.515 11.322 9.434 24.531 15.096 41.515 15.096 15.096 0 30.192-5.663 41.515-15.096 0 0 126.428-147.185 126.428-147.185 0 0 128.315 147.185 128.315 147.185 11.322 9.434 26.416 15.096 41.515 15.096 16.983 0 30.192-5.663 41.515-15.096 11.322-11.322 16.983-26.416 16.983-41.515 0-16.983-5.663-30.192-16.983-41.515 0 0-133.975-152.844-133.975-152.844 0 0 133.975-150.958 133.975-150.958z" />
<glyph unicode="&#x6f;" d="M461 392.333c14 0 26-5 36-15s15-22 15-36c0 0 0-256 0-256 0-13-5-25-15-36-10-10-22-15-36-15 0 0-244 0-244 0-13 0-25 5-36 14 0 0-174 152-174 152-9 9-9 18 0 27 0 0 174 152 174 152 10 8 22 13 36 13 0 0 244 0 244 0zM389 111.333c0 0 37 38 37 38s-65 64-65 64c0 0 65 65 65 65 0 0-37 37-37 37 0 0-65-64-65-64 0 0-65 64-65 64 0 0-37-37-37-37 0 0 65-65 65-65 0 0-65-64-65-64 0 0 37-38 37-38 0 0 65 65 65 65 0 0 65-65 65-65z" />
<glyph unicode="&#x70;" d="M488 290.333c11 0 18-2 21-6s4-11 3-19c0 0-22-231-22-231 0-8-2-15-6-19-3-5-10-7-21-7 0 0-413 0-413 0-18 0-27 9-28 26 0 0-22 231-22 231-1 8 0 15 3 19 3 4 10 6 21 6 0 0 464 0 464 0zM471 346.333c0 0 5-20 5-20s-433 0-433 0c0 0 7 67 7 67 2 7 5 13 10 18 6 4 12 7 19 7 0 0 84 0 84 0 18 0 32-6 44-18 0 0 15-15 15-15 11-12 26-18 44-18 0 0 174 0 174 0 7 0 14-2 20-7 6-4 10-8 11-14z" />
<glyph unicode="&#x71;" d="M396.791 128.639c23.099 0 42.897-7.7 59.396-24.198 16.499-15.399 25.298-36.298 25.298-60.496 0-23.099-8.8-42.897-25.298-59.396-16.499-16.499-36.298-24.198-59.396-24.198-23.099 0-42.897 7.699-59.396 24.198-16.499 16.499-25.298 36.298-25.298 59.396 0 2.2 0 5.5 1.101 8.8 0 2.2 0 4.399 0 6.599 0 0-146.291 87.995-146.291 87.995-15.399-12.099-32.998-18.699-51.697-18.699-23.099 0-42.897 8.8-59.396 25.298-16.499 16.499-25.299 36.298-25.299 59.396 0 23.099 8.799 42.897 25.299 59.396 16.499 16.499 36.298 25.298 59.396 25.298 19.799 0 37.397-5.5 51.697-17.599 0 0 146.291 87.995 146.291 87.995 0 2.2 0 4.399 0 6.6-1.101 3.3-1.101 5.5-1.101 7.699 0 23.099 8.8 42.897 25.298 59.396 16.499 16.499 36.298 24.198 59.396 24.198 23.099 0 42.897-7.7 59.396-24.198 16.499-15.398 25.298-36.298 25.298-59.396 0-24.198-8.8-43.997-25.298-60.496-16.499-16.499-36.298-24.198-59.396-24.198-19.798 0-36.298 5.5-50.596 17.599 0 0-147.391-87.994-147.391-87.994 0-2.2 1.101-7.7 1.101-14.299 0-5.5-1.101-10.999-1.101-13.199 0 0 147.391-87.995 147.391-87.995 13.199 10.999 30.798 16.499 50.596 16.499z" />
<glyph unicode="&#x72;" d="M371 469.333c7 0 13-3 18-8s8-11 8-18c0 0 0-435 0-435 0 0-77 92-77 92 0 0 0 318 0 318 0 7-3 13-8 18-5 5-11 7-18 7 0 0-51 0-51 0 0 17 7 26 21 26 0 0 107 0 107 0zM243 392.333c7 0 13-2 18-7 5-6 8-12 8-18 0 0 0-410 0-410 0 0-77 92-77 92 0 0-77-92-77-92 0 0 0 410 0 410 0 17 7 25 21 25 0 0 107 0 107 0z" />
<glyph unicode="&#x73;" d="M329.695 466.317c7.7 0 14.3-2.199 19.798-7.699s7.7-12.1 7.7-19.799c0 0 0-478.469 0-478.469 0 0-101.194 101.194-101.194 101.194 0 0-101.194-101.193-101.194-101.193 0 0 0 478.469 0 478.469 0 18.699 7.7 27.499 21.999 27.499 0 0 152.891 0 152.891 0z" />
<glyph unicode="&#x74;" d="M141-37.667c-35 0-64 12-87 37-25 24-38 52-38 85-1 33 13 65 43 97 0 0 254 254 254 254 27 28 57 37 89 28 15-4 28-12 40-24 12-12 20-26 24-41 9-32 0-62-27-90 0 0-243-242-243-242-14-14-29-22-45-24-17-1-30 3-41 14-10 9-15 21-14 38 1 17 9 33 24 47 0 0 170 171 170 171 8 9 17 9 26 0 9-9 9-17 0-25 0 0-170-170-170-170-15-15-19-27-11-36 5-3 9-4 13-3 8 1 16 6 23 13 0 0 243 243 243 243 17 17 23 35 17 55-5 21-18 34-39 39-18 5-36-1-55-18 0 0-253-253-253-253-22-26-33-51-33-74 1-22 10-42 27-59 17-17 37-25 60-26 23-1 47 10 72 32 0 0 254 253 254 253 8 8 17 8 26 0 9-8 9-16 0-25 0 0-254-254-254-254-28-28-60-42-95-42z" />
<glyph unicode="&#x75;" d="M116.868 82.67c0 0 72.591 72.591 72.591 72.591s0-181.476 0-181.476c0 0-171.798 10.889-171.798 10.889 0 0 54.443 53.233 54.443 53.233-47.184 49.603-71.38 110.096-70.171 179.057 1.21 68.961 25.407 129.453 75.010 179.057 41.135 41.135 90.739 64.122 147.601 71.38 0 0 2.419-62.912 2.419-62.912-41.135-7.26-76.221-25.407-106.466-54.443-36.295-36.295-54.443-81.060-55.653-131.873 0-52.023 16.937-96.788 52.023-135.503zM322.541 454.092c0 0 171.798-10.889 171.798-10.889s-54.443-53.233-54.443-53.233c47.184-49.603 71.38-110.096 70.171-179.056-1.211-68.961-25.407-129.453-75.010-179.057-38.716-39.925-88.318-64.122-147.601-72.591 0 0-1.211 64.122-1.211 64.122 39.925 7.26 75.010 25.407 105.257 54.443 36.295 36.295 54.443 81.060 55.652 131.873 0 52.023-16.937 96.788-52.023 135.503 0 0-71.38-72.591-71.38-72.591 0 0-1.211 181.476-1.211 181.476z" />
<glyph unicode="&#x76;" d="M256 469.333c0 0 118-186 118-186s-236 0-236 0c0 0 118 186 118 186zM256-42.667c0 0-118 187-118 187s236 0 236 0c0 0-118-187-118-187z" />
<glyph unicode="&#x77;" d="M506.839 16.172c4.129-6.194 4.129-12.387 0-18.58-3.097-5.161-8.258-8.258-15.484-8.258 0 0-471.742 0-471.742 0-6.194 0-11.355 3.097-14.451 8.258-4.129 6.193-4.129 12.387-1.032 18.581 0 0 235.355 412.903 235.355 412.903 3.097 6.194 8.258 9.291 16.516 9.291 7.226 0 12.387-3.097 15.484-9.291 0 0 235.355-412.903 235.355-412.903zM284.903 41.978c0 0 0 52.645 0 52.645s-57.806 0-57.806 0c0 0 0-52.645 0-52.645 0 0 57.806 0 57.806 0zM284.903 133.849c0 0 0 158.968 0 158.968s-57.806 0-57.806 0c0 0 0-158.968 0-158.968 0 0 57.806 0 57.806 0z" />
<glyph unicode="&#x78;" d="M492.485 438.819c4.399 0 8.8-2.2 12.099-5.5s4.399-6.599 4.399-12.099c0 0 0-67.095 0-67.095 0 0-505.967 0-505.967 0 0 0 0 67.095 0 67.095 0 5.5 1.101 8.799 4.399 12.099 3.3 3.3 7.7 5.5 12.1 5.5 0 0 472.97 0 472.97 0zM30.515 27.445c0 0 0 298.081 0 298.081s450.971 0 450.971 0c0 0 0-298.081 0-298.081 0-10.999-4.399-20.899-12.099-28.598-7.7-6.599-16.499-10.999-27.498-10.999 0 0-371.776 0-371.776 0-10.999 0-19.799 4.399-27.498 10.999-7.7 7.7-12.099 17.599-12.099 28.598zM171.305 269.429c0 0 0-56.096 0-56.096s169.389 0 169.389 0c0 0 0 56.096 0 56.096 0 0-169.389 0-169.389 0z" />
<glyph unicode="&#x79;" d="M431.484 342.366c6.194-3.097 9.291-8.258 9.291-14.452 0 0 0-297.291 0-297.291 0-5.161-2.065-9.291-6.193-13.419-4.129-4.129-9.291-6.193-14.452-6.193-16.516 0-24.774 7.226-24.774 19.613 0 0 0 275.613 0 275.613 0 4.129-2.065 7.226-6.193 9.29 0 0-213.678 114.581-213.678 114.581-11.355 3.097-22.709 2.065-36.129-5.161-15.484-7.226-24.774-15.484-28.903-23.742 0 0 215.742-119.742 215.742-119.742 6.193-3.097 9.291-8.258 9.291-15.484 0 0 0-290.065 0-290.065 0-8.258-3.097-13.419-9.291-15.484-2.065-1.033-5.161-2.064-9.291-2.064-4.129 0-8.258 1.033-10.322 2.064-3.097 2.065-38.194 24.774-106.322 67.097-68.129 43.355-106.323 66.065-112.516 69.161-9.29 7.226-13.419 12.387-13.419 18.581 0 0-3.097 276.645-3.097 276.645 0 10.322 2.064 18.58 7.226 27.871 10.323 15.484 27.871 29.935 53.678 40.258 25.806 11.355 46.452 12.387 61.935 5.161 0 0 237.419-122.838 237.419-122.838z" />
<glyph unicode="&#x7a;" d="M256 467.269c70.193 0 130.065-24.774 179.613-74.323s74.322-109.419 74.322-179.613c0-70.193-24.774-129.033-74.322-179.613-49.548-49.548-109.42-74.322-179.613-74.322-70.194 0-129.032 24.774-179.613 74.322-49.548 50.58-74.323 109.42-74.323 179.613 0 70.194 24.774 130.065 74.323 179.613 50.581 49.548 109.419 74.323 179.613 74.323zM392.258 350.624v0zM64 213.333c0-46.452 14.451-86.709 43.355-121.807 0 0 271.484 271.484 271.484 271.484-35.097 28.903-76.387 43.355-122.839 43.355-53.678 0-99.097-18.581-136.258-55.742-37.161-38.194-55.742-83.613-55.742-137.291zM119.742 77.075v0zM256 21.333c53.678 0 99.097 18.581 137.291 55.742 37.161 38.194 55.742 83.613 55.742 136.258 0 45.419-14.452 86.71-43.355 122.838 0 0-271.484-271.484-271.484-271.484 35.097-28.903 75.355-43.355 121.806-43.355z" />
<glyph unicode="&#x7b;" d="M400.916 91.86c74.589-25.573 111.883-47.95 111.883-66.065 0 0 0-57.54 0-57.54 0 0-256.799 0-256.799 0 0 0-256.799 0-256.799 0 0 0 0 57.54 0 57.54 0 18.115 37.294 40.491 111.883 66.065 34.098 12.786 57.54 25.573 69.261 38.361 12.786 12.786 19.18 29.836 19.18 51.147 0 8.524-4.262 17.049-12.786 26.639-7.459 10.656-12.786 23.442-17.049 40.492-1.066 4.262-2.131 7.459-5.328 9.59-2.131 2.131-4.262 3.197-7.459 4.262-2.131 1.066-4.262 4.262-7.459 9.59-2.131 5.328-4.262 12.786-4.262 23.442 0 5.328 0 10.655 2.131 13.852 2.131 4.262 3.197 6.394 5.328 6.394 0 0 2.131 2.131 2.131 2.131-3.197 18.115-5.328 34.098-6.393 47.95-2.131 20.245 5.328 40.491 22.377 61.803 15.983 20.245 44.754 30.901 85.245 30.901 40.492 0 69.262-10.655 86.31-30.901 17.049-21.311 23.442-41.557 21.311-61.803 0 0-6.394-47.95-6.394-47.95 6.394-2.131 9.59-10.655 9.59-22.377 0-10.656-2.131-18.115-4.262-23.442-3.197-5.328-5.328-8.524-7.459-9.59-3.197-1.066-5.328-2.131-7.459-4.262-3.197-2.131-4.262-5.328-5.328-9.59-3.197-18.114-8.524-30.901-17.049-40.492-8.524-9.59-12.786-18.115-12.786-26.639 0-21.311 6.394-38.361 19.18-51.147 12.786-12.786 36.229-25.573 69.262-38.361z" />
<glyph unicode="&#x7c;" d="M451 206.333c0 0-99 0-99 0s0-179 0-179c0 0-192 0-192 0 0 0 0 179 0 179 0 0-99 0-99 0 0 0 195 194 195 194 0 0 195-194 195-194z" />
<glyph unicode="&#x7d;" d="M425 206.333c0 0-98 0-98 0s0-179 0-179c0 0-142 0-142 0 0 0 0 179 0 179 0 0-98 0-98 0 0 0 169 194 169 194 0 0 169-194 169-194z" />
<glyph unicode="&#x7e;" d="M79 293.333c-3-3-4-7-6-11-1-5-1-9-1-13 0-4 0-6-1-6-1-1-4-3-9-8-5-4-8-7-9-8-6-5-11-4-15 2 0 0-36 39-36 39-3 4-3 8 1 12 1 1 4 3 10 7 5 4 8 7 10 8 2 2 6 3 14 3 7 0 13 3 19 8 4 4 7 11 9 19 1 8 3 13 5 15 1 0 2 2 5 4 2 2 6 6 13 11 6 5 13 11 21 16 46 31 77 47 95 49 42 0 67 0 76-1 4 0 3-1-4-4-41-18-67-31-78-39-27-19-34-38-19-58 12-16 19-24 20-25 3-2 2-5-1-7-1-1-7-6-20-18-12-11-18-17-19-18-5-2-8-3-9-2-15 17-27 27-37 31-9 4-21 2-34-6zM226 280.333c0 0 209-244 209-244 7-8 6-14-1-20 0 0-24-21-24-21-8-5-14-4-20 2 0 0-212 242-212 242-2 2-2 6 0 10 0 0 37 32 37 32 4 2 8 2 11-1zM509 383.333c6-36 3-64-8-85-17-30-43-41-79-32-19 4-36-1-51-16 0 0-42-40-42-40 0 0-35 40-35 40 0 0 35 36 35 36 8 8 13 17 16 27 2 10 3 21 3 33 0 12 0 22 2 30 5 19 28 38 72 57 4 2 7 2 9-1 2-3 3-6 1-8-4-4-12-18-23-41-5-3-7-9-6-18 0-8 7-18 20-27 20-14 36-10 49 11 2 4 7 11 14 21 6 10 10 16 11 17 1 3 4 5 7 5 3-1 5-4 5-9zM70 33.333c0 0 130 127 130 127s39-44 39-44c0 0-126-124-126-124-7-7-13-8-20-2 0 0-23 23-23 23-8 6-8 13 0 20z" />
<glyph unicode="&#xe000;" d="M372 367.333c25 0 38-11 38-33 0 0 0-241 0-241 0-22-13-34-38-34 0 0-231 0-231 0-26 0-39 12-39 34 0 0 0 241 0 241 0 12 3 21 10 25 6 5 16 8 29 8 0 0 231 0 231 0z" />
<glyph unicode="&#xe001;" d="M511.467 273.51c0 0-152.145-113.542-152.145-113.542s54.5-202.103 54.5-202.103c0 0-157.822 120.353-157.822 120.353 0 0-157.822-120.353-157.822-120.353 0 0 54.5 202.103 54.5 202.103 0 0-152.145 113.541-152.145 113.541 0 0 186.208 0 186.208 0 0 0 69.26 195.291 69.26 195.291 0 0 69.26-195.291 69.26-195.291 0 0 186.207 0 186.207 0zM256 134.99c0 0 87.427-71.531 87.427-71.531s-36.334 103.322-36.334 103.322c0 0 84.020 65.854 84.020 65.854 0 0-102.187-2.27-102.187-2.27 0 0-32.927 118.083-32.927 118.083 0 0-31.792-118.083-31.792-118.083 0 0-102.187 2.27-102.187 2.27 0 0 82.885-65.854 82.885-65.854 0 0-36.333-103.322-36.333-103.322 0 0 87.427 71.531 87.427 71.531z" />
<glyph unicode="&#xe002;" d="M256 468.801c0 0 69.26-195.291 69.26-195.291s186.207 0 186.207 0c0 0-152.145-113.542-152.145-113.542 0 0 54.5-202.103 54.5-202.103 0 0-157.822 120.353-157.822 120.353 0 0-157.822-120.353-157.822-120.353 0 0 54.5 202.103 54.5 202.103 0 0-152.145 113.541-152.145 113.541 0 0 186.208 0 186.208 0 0 0 69.26 195.291 69.26 195.291z" />
<glyph unicode="&#xe003;" d="M385 85.333c0 0 0 83 0 83s-380 0-380 0c0 0 0 91 0 91 0 0 380 0 380 0 0 0 0 82 0 82 0 0 122-128 122-128 0 0-122-128-122-128z" />
<glyph unicode="&#xe004;" d="M89.91 98.94c0 0-59.396 56.096-59.396 56.096s167.189 0 167.189 0c0 0 0-167.189 0-167.189 0 0-56.096 59.396-56.096 59.396 0 0-82.495-86.894-82.495-86.894 0 0-56.096 56.096-56.096 56.096 0 0 86.894 82.495 86.894 82.495zM508.983 410.22c0 0-85.795-81.394-85.795-81.394s58.296-56.096 58.296-56.096c0 0-166.089 0-166.089 0 0 0 0 166.089 0 166.089 0 0 56.096-58.296 56.096-58.296 0 0 81.394 85.794 81.394 85.794 0 0 56.096-56.096 56.096-56.096z" />
<glyph unicode="&#xe005;" d="M299.688 429.641c0 0 172.62 0 172.62 0s0-172.62 0-172.62c0 0-54.343 67.13-54.343 67.13 0 0-79.917-82.048-79.917-82.048 0 0-54.343 54.343-54.343 54.343 0 0 82.048 79.917 82.048 79.917 0 0-66.065 53.278-66.065 53.278zM173.952 186.694c0 0 54.343-54.343 54.343-54.343s-82.048-79.917-82.048-79.917c0 0 66.065-54.343 66.065-54.343 0 0-172.62 0-172.62 0 0 0 0 172.62 0 172.62 0 0 54.343-66.065 54.343-66.065 0 0 79.917 82.048 79.917 82.048z" />
<glyph unicode="&#xe006;" d="M256 467.152c70.9 0 130.455-24.106 180.084-73.735s73.735-109.184 73.735-180.084c0-69.481-24.106-129.037-73.735-178.667-49.63-51.048-109.184-75.153-180.084-75.153-70.9 0-130.455 24.106-180.084 75.153-49.63 49.63-73.735 109.184-73.735 178.667 0 70.9 24.106 130.455 73.735 180.084 49.63 49.63 109.184 73.735 180.084 73.735z" />
<glyph unicode="&#xe007;" d="M256 465.321c69.15 0 128.924-24.613 178.149-73.839s73.839-108.999 73.839-178.149c0-69.15-24.613-128.924-73.839-178.149-49.226-49.226-109-73.839-178.149-73.839-69.15 0-128.924 24.613-178.149 73.839-49.225 49.226-73.839 109-73.839 178.149 0 69.15 24.613 128.925 73.839 178.149 49.225 49.225 109 73.839 178.149 73.839zM287.645 182.86c0 0 119.548 0 119.548 0s0 62.118 0 62.118c0 0-119.548 0-119.548 0 0 0 0 120.72 0 120.72 0 0-62.118 0-62.118 0 0 0 0-120.72 0-120.72 0 0-120.72 0-120.72 0 0 0 0-62.118 0-62.118 0 0 120.72 0 120.72 0 0 0 0-120.72 0-120.72 0 0 62.118 0 62.118 0 0 0 0 120.72 0 120.72z" />
<glyph unicode="&#xe008;" d="M484.167 257.937c17.156 0 25.733-15.441 25.733-44.603s-8.577-44.603-25.733-44.603c0 0-183.563 0-183.563 0 0 0 0-183.563 0-183.563 0-17.156-15.441-25.733-44.603-25.733-29.165 0-44.603 8.577-44.603 25.733 0 0 0 183.563 0 183.563 0 0-183.563 0-183.563 0-17.156 0-25.733 15.441-25.733 44.603 0 29.165 8.577 44.603 25.733 44.603 0 0 183.563 0 183.563 0 0 0 0 183.563 0 183.563 0 17.156 15.441 25.733 44.603 25.733 29.164 0 44.603-8.577 44.603-25.733 0 0 0-183.563 0-183.563 0 0 183.563 0 183.563 0z" />
<glyph unicode="&#xe009;" d="M450.808 234.263c8.050-4.832 11.269-12.88 11.269-20.93s-3.219-14.491-11.269-19.32c0 0-352.589-218.959-352.589-218.959-12.88-9.661-24.15-11.269-33.81-6.439-9.66 6.439-14.491 17.711-14.491 33.81 0 0 0 423.428 0 423.428 0 16.101 4.831 27.37 14.491 33.81 9.66 4.832 20.93 3.219 33.81-4.832 0 0 352.589-220.568 352.589-220.568z" />
<glyph unicode="&#xe00a;" d="M101.3 431.201c64.459 0 104.421-32.228 121.181-96.687 16.76-61.881 7.735-127.627-27.072-198.53-34.807-74.772-83.796-119.892-146.964-135.362-14.181-3.868-28.361-5.156-43.831-5.156 0 0 0 46.411 0 46.411 48.989 0 88.951 23.204 119.892 70.904 24.494 38.675 29.65 69.615 16.76 96.687-6.446 15.47-20.626 23.205-39.965 23.205-27.073 0-48.989 10.314-68.326 29.65-19.337 19.338-28.361 42.542-28.361 69.614 0 27.072 9.024 50.277 28.361 69.615 19.337 19.337 41.254 29.651 68.326 29.651zM378.47 431.201c64.459 0 104.421-32.228 121.182-96.687 16.76-61.881 7.735-127.627-27.072-198.53-34.807-74.772-83.796-119.892-146.964-135.362-14.181-3.868-28.361-5.156-43.832-5.156 0 0 0 46.411 0 46.411 48.988 0 88.951 23.204 119.892 70.904 24.494 38.675 29.651 69.615 16.76 96.687-6.446 15.47-20.627 23.205-39.964 23.205-27.072 0-48.988 10.314-68.325 29.65-19.337 19.338-28.361 42.542-28.361 69.614 0 27.072 9.024 50.277 28.361 69.615 19.337 19.337 41.254 29.651 68.326 29.651z" />
<glyph unicode="&#xe00b;" d="M461 443.333c14 0 26-5 36-15s15-22 15-36c0 0 0-307 0-307 0-14-5-26-15-36-10-10-22-15-36-15 0 0-102 0-102 0 0 0 0 50 0 50 0 0 103 0 103 0 0 0 0 237 0 237 0 0-411 0-411 0 0 0 0-237 0-237 0 0 103 0 103 0 0 0 0-50 0-50 0 0-103 0-103 0-13 0-25 5-36 15-10 10-15 22-15 36 0 0 0 307 0 307 0 14 5 26 15 36 11 10 23 15 36 15 0 0 410 0 410 0zM67 357.333c13 0 19 7 19 20 0 5-2 10-6 13-3 4-8 5-13 5-6 0-11-2-14-5-4-4-6-8-6-13 0-6 2-10 6-14 3-4 8-6 14-6zM118 357.333c13 0 19 7 19 20 0 5-2 10-5 13-4 4-9 5-14 5-6 0-10-2-14-5-4-4-6-8-6-13 0-6 2-10 6-14 4-4 8-6 14-6zM462 360.333c0 0 0 32 0 32s-308 0-308 0c0 0 0-32 0-32 0 0 308 0 308 0zM255 259.333c0 0 124-123 124-123s-77 0-77 0c0 0 0-153 0-153 0 0-94 0-94 0 0 0 0 153 0 153 0 0-77 0-77 0 0 0 124 123 124 123z" />
<glyph unicode="&#xe00c;" d="M39 303.333c-9 0-13 4-11 11 1 4 3 6 6 8 0 0 9 2 25 8 16 6 32 12 47 17 16 5 26 7 30 7 0 0 23 0 23 0 0 0 0 77 0 77 0 0 194 0 194 0 0 0 0-77 0-77 0 0 24 0 24 0 4 0 14-2 29-7 15-5 31-11 47-17 16-6 25-8 25-8 6-3 8-8 6-14-1-3-4-5-10-5 0 0-435 0-435 0zM479 274.333c7 0 13-3 19-9 6-7 9-14 9-21 0 0 0-89 0-89 0-8-3-15-9-21-6-7-12-10-19-10 0 0-51 0-51 0 0 0 23-128 23-128 0 0-390 0-390 0 0 0 23 128 23 128 0 0-50 0-50 0-7 0-14 3-20 10-6 6-9 13-9 21 0 0 0 89 0 89 0 7 3 14 9 21 6 6 13 9 20 9 0 0 445 0 445 0zM113 47.333c0 0 286 0 286 0s-35 166-35 166c0 0-216 0-216 0 0 0-35-166-35-166z" />
<glyph unicode="&#xe00d;" d="M448.326 469.352c17.483 0 32.471-6.245 44.96-18.733s18.733-27.475 18.733-44.96c0 0 0-256.019 0-256.019 0-17.483-6.245-32.471-18.733-44.96-12.489-12.489-27.475-18.733-44.96-18.733 0 0-256.019 0-256.019 0-17.483 0-32.471 6.245-44.96 18.733-12.489 12.489-18.733 27.475-18.733 44.96 0 0 0 257.268 0 257.268 0 16.236 6.244 31.221 17.483 43.711 12.489 12.489 27.475 18.733 46.208 18.733 0 0 256.019 0 256.019 0zM448.326 149.641c0 0 0 256.019 0 256.019s-256.019 0-256.019 0c0 0 0-256.019 0-256.019 0 0 256.019 0 256.019 0zM63.674 213.333c0 0 0-192.326 0-192.326s192.326 0 192.326 0c0 0 0-63.692 0-63.692 0 0-192.326 0-192.326 0-16.236 0-31.221 6.245-43.711 19.982-13.739 12.489-19.982 27.475-19.982 43.711 0 0 0 192.326 0 192.326 0 0 63.692 0 63.692 0z" />
<glyph unicode="&#xe00e;" d="M465.81 424.393c13.738-13.738 23.728-27.475 29.973-41.213s9.991-23.729 9.991-29.973c0 0 0-11.24 0-11.24 0 0-161.105-161.105-161.105-161.105 0 0-186.083-183.584-186.083-183.584 0 0-152.363-33.719-152.363-33.719 0 0 32.471 153.611 32.471 153.611 0 0 184.833 184.833 184.833 184.833 0 0 161.104 161.104 161.104 161.104 23.728 4.995 49.956-7.493 81.177-38.715zM149.846 14.762c0 0 14.987 16.236 14.987 16.236 0 18.733-11.24 38.716-32.47 59.947-9.991 8.742-19.982 16.236-28.724 22.48-9.991 4.995-17.484 7.493-22.48 7.493 0 0-8.742 1.25-8.742 1.25 0 0-14.986-14.986-14.986-14.986 0 0-11.241-51.203-11.241-51.203 12.489-6.245 21.231-13.738 29.972-21.231 9.991-11.24 17.483-21.231 22.48-31.221 0 0 51.203 11.24 51.203 11.24z" />
<glyph unicode="&#xe00f;" d="M461 438.333c14 0 26-5 36-15s15-22 15-36c0 0 0-282 0-282 0-14-5-27-15-39-10-12-22-19-35-22 0 0-112-22-112-22 0 0 44-20 44-20 17-10 14-14-10-14 0 0-256 0-256 0-33 0-28 9 16 26 0 0 19 8 19 8 0 0-113 22-113 22-13 3-25 10-35 22-10 12-15 25-15 39 0 0 0 282 0 282 0 14 5 26 15 36 11 10 23 15 36 15 0 0 410 0 410 0zM461 108.333c0 0 0 284 0 284s-410 0-410 0c0 0 0-284 0-284 0 0 410 0 410 0z" />
<glyph unicode="&#xe010;" d="M353 464.333c15 0 27-5 37-15s14-22 14-36c0 0 0-400 0-400 0-13-4-25-14-36-10-10-22-15-37-15 0 0-194 0-194 0-14 0-26 5-36 15-10 11-15 23-15 36 0 0 0 400 0 400 0 14 5 26 15 36 10 10 22 15 36 15 0 0 194 0 194 0zM256-16.667c10 0 19 2 26 7 6 5 10 11 10 18 0 8-4 14-10 19-7 4-16 7-26 7-10 0-18-3-25-8-7-5-11-11-11-18 0-7 4-13 11-18 7-5 15-7 25-7zM364 59.333c0 0 0 338 0 338s-216 0-216 0c0 0 0-338 0-338 0 0 216 0 216 0z" />
<glyph unicode="&#xe011;" d="M452.887 320.026c16.499 0 29.698-5.5 40.697-16.499 9.899-9.899 15.399-24.198 15.399-39.598 0 0 0-162.789 0-162.789 0-15.399-5.5-28.598-15.399-39.598-10.999-10.999-24.198-17.599-40.697-17.599 0 0-393.775 0-393.775 0-15.398 0-28.598 6.599-39.598 17.599-10.999 10.999-16.499 24.198-16.499 39.598 0 0 0 162.789 0 162.789 0 15.399 5.5 29.698 16.499 39.598 10.999 10.999 24.198 16.499 39.598 16.499 0 0 140.791 0 140.791 0 0 0 0 62.696 0 62.696 0 0 112.193-102.293 112.193-102.293 0 0-112.193-101.194-112.193-101.194 0 0 0 62.696 0 62.696 0 0-118.793 0-118.793 0 0 0 0-118.793 0-118.793 0 0 349.777 0 349.777 0 0 0 0 118.793 0 118.793 0 0-84.695 0-84.695 0 0 0 0 78.095 0 78.095 0 0 106.693 0 106.693 0z" />
<glyph unicode="&#xe012;" d="M476 367.333c10 0 18-4 25-11s11-16 11-25c0 0 0-236 0-236 0-10-4-19-11-25-7-7-15-11-25-11 0 0-440 0-440 0-10 0-18 4-25 11-7 6-11 15-11 25 0 0 0 236 0 236 0 9 4 18 11 25 7 7 15 11 25 11 0 0 440 0 440 0zM282 315.333c0 0 0-51 0-51s51 0 51 0c0 0 0 51 0 51 0 0-51 0-51 0zM358 239.333c0 0-51 0-51 0s0-52 0-52c0 0 51 0 51 0 0 0 0 52 0 52zM205 315.333c0 0 0-51 0-51s51 0 51 0c0 0 0 51 0 51 0 0-51 0-51 0zM282 239.333c0 0-52 0-52 0s0-52 0-52c0 0 52 0 52 0 0 0 0 52 0 52zM128 315.333c0 0 0-51 0-51s51 0 51 0c0 0 0 51 0 51 0 0-51 0-51 0zM205 239.333c0 0-51 0-51 0s0-52 0-52c0 0 51 0 51 0 0 0 0 52 0 52zM51 315.333c0 0 0-51 0-51s51 0 51 0c0 0 0 51 0 51 0 0-51 0-51 0zM128 239.333c0 0-51 0-51 0s0-52 0-52c0 0 51 0 51 0 0 0 0 52 0 52zM102 111.333c0 0 0 51 0 51s-51 0-51 0c0 0 0-51 0-51 0 0 51 0 51 0zM384 111.333c0 0 0 51 0 51s-256 0-256 0c0 0 0-51 0-51 0 0 256 0 256 0zM461 111.333c0 0 0 51 0 51s-51 0-51 0c0 0 0-51 0-51 0 0 51 0 51 0zM384 187.333c0 0 51 0 51 0s0 52 0 52c0 0-51 0-51 0 0 0 0-52 0-52zM461 264.333c0 0 0 51 0 51s-103 0-103 0c0 0 0-51 0-51 0 0 103 0 103 0z" />
<glyph unicode="&#xe013;" d="M184-22.667c0 0 0 54 0 54s144 0 144 0c0 0 0-54 0-54-24-14-48-21-73-20-23-1-47 6-71 20zM325 61.333c0 0-138 0-138 0 0 25-6 49-19 72-12 23-25 43-40 58-14 15-26 34-37 57-11 23-16 47-14 71 3 41 19 77 48 106 30 29 73 44 130 44 58 0 102-15 131-44 29-29 45-65 49-106 1-20-2-39-9-57-6-18-15-35-26-50-11-14-22-29-33-43-12-14-21-31-30-49-8-19-12-38-12-59zM132 315.333c-2-1-2-4 0-10 1-5 1-9 1-10-1-1 0-5 2-10 3-5 4-8 3-9 0-1 1-4 4-9 3-5 5-9 6-10 1-1 3-5 7-10 3-5 6-8 7-9 1-2 3-5 7-11 5-6 7-10 9-12 30-42 49-78 57-108 0 0 42 0 42 0 8 32 27 68 57 108 2 2 6 8 13 18 7 10 12 16 13 18 1 3 4 8 9 15 4 8 7 13 8 17 1 4 2 9 3 14 1 6 1 12 0 18-5 67-47 101-125 101-77 0-118-34-123-101z" />
<glyph unicode="&#xe014;" d="M452 347.333c7-39 2-76-14-110s-42-54-77-60c-22-4-44-4-66-1 0 0-61-99-61-99 0 0-36-6-36-6 0 0-53-85-53-85-5-10-12-15-23-17 0 0-39-7-39-7-4-1-8-1-12 2-3 3-5 7-6 11 0 0-8 51-8 51-3 10-1 19 6 28 0 0 132 198 132 198-8 17-14 37-19 61-6 37 3 68 27 96 24 28 56 45 95 52 36 7 69-1 100-23 30-22 48-53 54-91zM388 308.333c10 15 14 32 11 50s-12 32-27 42c-14 11-30 15-47 12-17-4-30-13-41-28-2-4-4-8-6-12-1-4-1-7 0-10 1-3 2-6 2-8 1-3 3-5 7-9 4-3 7-6 9-8 3-1 6-4 11-8 6-4 10-6 12-8 2-2 6-5 11-9 6-4 10-7 12-8 3-1 6-3 10-6 4-3 7-4 10-4 2 0 5 0 8 0 4 1 7 2 10 5 2 2 5 5 8 9z" />
<glyph unicode="&#xe015;" d="M502.385 205.634c6.599-6.599 8.8-10.999 6.599-15.399s-6.599-6.599-15.399-6.599c0 0-47.297 0-47.297 0 0 0 0-173.789 0-173.789 0-5.5 0-9.899 0-12.099-1.101-2.2-2.2-5.5-4.399-7.7-3.3-2.2-7.7-3.3-13.199-3.3 0 0-115.493 0-115.493 0 0 0 0 174.889 0 174.889 0 0-114.393 0-114.393 0 0 0 0-174.889 0-174.889 0 0-108.893 0-108.893 0-10.999 0-17.599 2.2-19.799 5.5-3.3 4.399-4.4 9.899-4.4 17.599 0 0 0 173.789 0 173.789 0 0-47.297 0-47.297 0-7.7 0-13.199 2.2-15.399 6.599-1.101 4.399 0 8.8 6.6 15.399 0 0 225.486 226.586 225.486 226.586 5.5 5.5 13.199 8.799 20.898 8.799 8.8 0 15.399-3.3 21.998-8.799 0 0 224.386-226.586 224.386-226.586z" />
<glyph unicode="&#xe016;" d="M318 469.333c17 0 29-5 38-14s14-21 14-35c0-17-7-32-20-45-14-13-30-20-49-20-16 0-29 5-38 14-9 9-13 21-12 37 0 15 6 30 18 43 12 13 28 20 49 20zM213-42.667c-34 0-43 30-28 91 0 0 31 130 31 130 5 19 5 29 0 29-4 0-13-3-28-9-14-7-26-13-36-20 0 0-14 23-14 23 31 26 63 48 97 64 34 17 60 25 77 25 27 0 33-28 19-83 0 0-36-136-36-136-6-22-5-33 3-33 15 0 35 10 60 31 0 0 16-21 16-21-29-29-59-52-90-67-31-16-55-24-71-24z" />
<glyph unicode="&#xe017;" d="M252.803 464.805c69.262 0 127.867-23.442 177.948-71.393 49.015-47.95 74.589-106.556 76.72-175.817 0-69.262-23.442-128.932-72.458-177.948-47.95-50.081-106.556-75.654-175.817-77.786-69.262 0-128.932 23.442-177.948 72.458-50.081 47.95-75.654 106.556-76.72 175.817-1.066 69.262 22.377 128.932 71.392 177.948 49.016 50.081 107.621 75.654 176.882 76.72zM281.573 381.691c-15.983 0-27.704-4.262-36.229-13.852-8.524-8.524-12.786-17.049-12.786-26.639 0-10.655 2.131-18.115 8.524-24.508 6.393-5.328 14.917-8.524 26.639-8.524 13.853 0 25.573 4.262 33.033 11.721 8.524 8.524 12.786 18.115 12.786 29.836 0 21.311-10.656 31.966-31.966 31.966zM215.508 57.762c10.655 0 26.639 4.262 45.819 13.853 20.245 9.59 39.425 23.442 57.54 42.623 0 0-9.59 12.786-9.59 12.786-17.049-12.786-29.836-19.18-39.425-19.18-4.262 0-5.328 6.394-2.131 20.245 0 0 23.442 87.375 23.442 87.375 9.59 35.164 5.328 52.212-11.721 52.212-11.721 0-27.704-5.328-49.016-15.984-21.311-10.655-42.623-23.442-62.868-40.492 0 0 8.524-13.853 8.524-13.853 19.18 11.721 33.032 18.115 40.492 18.115 4.262 0 4.262-6.394 0-18.115 0 0-19.18-83.113-19.18-83.113-9.59-38.361-3.197-56.474 18.114-56.474z" />
<glyph unicode="&#xe018;" d="M399 352.333c0-15-8-31-24-49-17-18-33-35-50-51-17-16-25-29-25-39 0-10 8-23 25-39 17-16 33-32 50-50 16-17 24-34 24-49 0 0 0-61 0-61 0-11-14-24-44-37-29-13-62-20-99-20-37 0-70 7-99 20-30 13-44 26-44 37 0 0 0 61 0 61 0 15 8 32 24 49 17 18 33 34 50 50 17 16 25 29 25 39 0 10-8 23-25 39-17 16-33 33-50 51-16 18-24 34-24 49 0 0 0 61 0 61 0 11 14 23 44 36 30 13 63 20 99 20 36 0 69-7 99-20 30-13 44-25 44-36 0 0 0-61 0-61zM153 410.333c0 0-10-8-10-8-1-2 0-5 2-7 32-17 69-26 111-26 45 0 83 8 113 25 4 4 2 9-9 16-32 18-67 27-103 27-41 0-76-9-104-27zM269 213.333c0 6 1 12 2 17 2 5 5 11 10 17 4 6 8 10 10 13 2 2 7 7 16 15 8 9 13 13 15 15 31 31 47 52 47 62 0 0 1 26 1 26-34-19-72-28-114-28-42 0-80 9-114 28 0 0 2-26 2-26 0-11 16-31 46-62 3-2 6-6 12-11 5-5 9-9 12-11 0 0 9-10 9-10 0 0 3-4 9-11 6-7 8-10 6-10-2 0-1-4 4-12 5-8 6-12 2-12 0-3 0-7-1-10 0-3-1-6-3-9-2-3-3-6-4-8-1-3-3-5-6-9 0 0-6-8-6-8 0 0-2-2-7-8-6-5-8-8-9-7 0 0-3-3-9-9-6-5-9-8-9-8-30-30-46-51-46-62 0 0 0-34 0-34 3 1 14 5 34 12 20 6 36 14 47 22 12 8 18 18 18 29 0 11 4 16 13 16 9 0 13-5 13-16 0-11 6-21 17-29 11-8 28-16 48-22 21-7 33-11 35-12 0 0 0 34 0 34 0 10-16 31-47 62-2 2-5 5-11 10-6 6-10 10-11 11-2 2-5 5-10 10-4 5-7 8-9 11-2 3-4 6-6 10-2 5-4 8-5 12 0 4-1 8-1 12z" />
<glyph unicode="&#xe019;" d="M496 238.333c14-15 19-27 15-37 0 0-14-79-14-79-1-7-5-13-11-17-7-4-13-7-21-7 0 0-418 0-418 0-7 0-14 3-20 7-6 4-10 10-11 17 0 0-15 79-15 79-2 11 3 23 17 37 2 3 9 9 18 19 10 10 21 21 35 34 14 14 22 22 27 26 7 8 16 12 26 12 0 0 132 0 132 0 0 0 132 0 132 0 11 0 19-4 27-12 5-5 14-14 27-26 13-12 24-24 34-33 11-10 17-17 20-20zM360 221.333c0 0 91 0 91 0s-52 59-52 59c0 0-285 0-285 0 0 0-52-59-52-59 0 0 91 0 91 0 3 0 5-1 6-4 0 0 20-51 20-51 0 0 154 0 154 0 0 0 21 51 21 51 1 3 3 4 6 4z" />
<glyph unicode="&#xe01a;" d="M306.596 158.337c-79.195 0-140.791-8.8-186.988-25.298-46.197-17.599-84.695-53.897-116.593-111.093 1.101 7.7 3.3 17.599 6.599 29.698 3.3 12.099 13.199 34.098 28.598 65.996 15.398 31.898 32.997 59.396 53.896 83.594 20.898 24.198 49.497 46.197 87.994 65.996 37.398 19.798 80.295 29.698 126.492 29.698 0 0 0 107.793 0 107.793 0 0 202.387-181.488 202.387-181.488 0 0-202.387-188.088-202.387-188.088 0 0 0 123.192 0 123.192z" />
<glyph unicode="&#xe01b;" d="M0.532 213.333c0 5.678 2.271 10.219 7.948 13.625 0 0 216.863 144.198 216.863 144.198 7.948 5.677 14.761 6.813 21.572 3.406 5.678-2.27 9.084-10.219 9.084-20.437 0 0 0-280.447 0-280.447 0-10.219-3.406-18.166-9.084-20.437-6.813-3.406-13.625-2.271-21.572 3.406 0 0-216.863 144.197-216.863 144.197-5.678 2.271-7.948 6.813-7.948 12.49zM263.948 213.333c0 5.678 3.406 10.219 7.948 13.625 0 0 210.050 144.198 210.050 144.198 6.813 5.677 14.761 6.813 20.437 3.406 6.813-2.27 9.084-10.219 9.084-20.437 0 0 0-280.447 0-280.447 0-10.219-2.271-18.166-9.084-20.437-5.678-3.406-13.625-2.271-20.437 3.406 0 0-210.050 144.197-210.050 144.197-4.541 2.271-7.948 6.813-7.948 12.49z" />
<glyph unicode="&#xe01c;" d="M503.52 226.958c5.678-3.407 7.948-7.948 7.948-13.625s-2.271-10.219-7.948-12.49c0 0-215.728-144.197-215.728-144.197-9.084-5.678-15.895-6.813-21.572-3.406-5.678 2.271-9.084 10.219-9.084 20.437 0 0 0 280.447 0 280.447 0 10.219 3.406 18.167 9.084 20.437 5.678 3.406 12.49 2.27 21.572-3.406 0 0 215.728-144.197 215.728-144.197zM240.105 226.958c4.542-3.407 7.948-7.948 7.948-13.625s-3.406-10.219-7.948-12.49c0 0-210.050-144.197-210.050-144.197-6.813-5.678-14.761-6.813-20.437-3.406-6.813 2.271-9.084 10.219-9.084 20.437 0 0 0 280.447 0 280.447 0 10.219 2.271 18.167 9.084 20.437 5.678 3.406 13.625 2.27 20.437-3.406 0 0 210.050-144.197 210.050-144.197z" />
<glyph unicode="&#xe01d;" d="M208 125.333c11 19 48 68 109 145 62 78 95 116 100 113 4-2-13-50-49-142-37-93-61-149-71-167-17-30-40-36-70-19-29 17-36 41-19 70zM256 319.333c-57 0-106-21-145-65-40-43-60-96-60-159 0-10 1-18 1-23 1-8-1-14-6-19-5-5-10-8-17-9-7-1-13 1-19 6-5 5-8 11-9 18 0 2 0 7 0 13-1 6-1 11-1 14 0 77 25 143 74 196 50 53 110 80 182 80 25 0 47-3 69-10 0 0-36-44-36-44-14 2-25 2-33 2zM441 288.333c47-53 71-117 71-193 0-13 0-22-1-28-1-7-3-13-8-17-5-5-11-7-18-7 0 0-2 0-2 0-7 1-13 5-18 10-4 6-6 12-5 19 0 4 1 12 1 23 0 51-14 97-41 137 2 5 5 14 10 27 5 12 9 22 11 29z" />
<glyph unicode="&#xe01e;" d="M408 326.333c28 0 53-9 73-27 21-19 31-47 31-86 0-38-10-67-31-85-20-18-45-28-73-28-27 0-54 7-81 21-27 13-51 32-71 54-20-22-43-41-70-54-27-14-54-21-81-21-29 0-54 10-74 28-21 18-31 47-31 85 0 39 10 67 31 86 20 18 45 27 74 27 27 0 54-7 81-20 27-14 50-32 70-54 20 22 43 40 71 54 27 13 54 20 81 20zM105 145.333c21 0 43 7 65 19 23 13 43 29 58 49-15 20-34 36-57 49-23 12-44 19-66 19-38 0-58-23-58-68 0-45 20-68 58-68zM408 145.333c38 0 58 23 58 68s-20 68-58 68c-22 0-44-7-66-19-23-13-42-29-57-49 15-20 34-36 57-49 22-12 44-19 66-19z" />
<glyph unicode="&#xe01f;" d="M77 269.333c16 0 29-5 40-16s16-24 16-40c0-15-5-28-16-39-11-12-24-17-40-17-16 0-29 5-40 17-11 11-17 24-17 39 0 16 6 29 17 40 11 11 24 16 40 16zM256 269.333c16 0 29-5 40-16s16-24 16-40c0-15-5-28-17-39-11-12-24-17-39-17-15 0-28 5-39 17-12 11-17 24-17 39 0 16 5 29 16 40 11 11 24 16 40 16zM435 269.333c16 0 29-5 40-16s17-24 17-40c0-15-6-28-17-39-11-12-24-17-40-17-15 0-29 5-40 17-11 11-16 24-16 39 0 16 5 29 16 40 11 11 25 16 40 16z" />
<glyph unicode="&#xe020;" d="M166 269.333c16 0 29-5 40-16s17-24 17-40c0-15-6-28-17-39-11-12-24-17-40-17-15 0-29 5-40 16-10 11-16 24-16 40 0 16 6 29 16 40 11 11 25 16 40 16zM346 269.333c15 0 29-5 40-16 10-11 16-24 16-40 0-15-6-28-17-39-11-12-24-17-39-17-16 0-29 5-40 16-11 11-17 24-17 40 0 16 6 29 17 40 11 11 24 16 40 16z" />
<glyph unicode="&#xe021;" d="M256 269.333c16 0 29-5 40-16s16-24 16-40c0-15-5-28-16-39-11-12-24-17-40-17-16 0-29 5-40 17-11 11-16 24-16 39 0 16 5 29 16 40 11 11 24 16 40 16z" />
<glyph unicode="&#xe022;" d="M425 221.333c0 0-169-194-169-194s-169 194-169 194c0 0 98 0 98 0 0 0 0 179 0 179 0 0 142 0 142 0 0 0 0-179 0-179 0 0 98 0 98 0z" />
<glyph unicode="&#xe023;" d="M451 221.333c0 0-195-194-195-194s-195 194-195 194c0 0 99 0 99 0 0 0 0 179 0 179 0 0 192 0 192 0 0 0 0-179 0-179 0 0 99 0 99 0z" />
<glyph unicode="&#xe024;" d="M506.816 464.149c3.517-3.517 5.86-5.861 7.032-9.377s0-8.204-1.173-12.893c-2.344-5.861-4.688-11.721-5.861-16.408-2.344-4.688-5.861-12.893-11.721-23.44-5.861-10.548-10.548-19.924-15.237-29.301-21.096-44.538-50.397-101.967-87.903-171.118-37.505-70.322-67.978-127.751-93.763-175.805 0 0-39.849-70.322-39.849-70.322 0 0-32.817 227.375-32.817 227.375 0 0-227.375 33.989-227.375 33.989 176.977 98.451 315.279 172.29 417.245 220.342 8.204 4.688 17.58 9.377 29.301 15.237 10.548 5.861 18.752 10.548 23.44 12.893 3.517 1.172 9.377 3.516 15.237 4.688 4.688 1.172 9.377 2.344 12.893 1.172 3.517-1.172 7.033-3.516 10.548-7.032zM451.731 406.72c0 0-182.837-167.601-182.837-167.601s17.581-140.645 17.581-140.645c0 0 165.257 308.245 165.257 308.245z" />
<glyph unicode="&#xe025;" d="M221.902 437.1c61.803 0 114.014-21.311 156.637-62.867 43.688-42.623 66.065-93.769 67.13-154.506 0 0 67.13 0 67.13 0 0 0-101.228-111.884-101.228-111.884 0 0-100.162 111.884-100.162 111.884 0 0 78.851 0 78.851 0-1.066 44.753-18.115 83.113-51.147 115.080-33.032 30.901-71.392 46.885-117.212 46.885-45.819 0-85.245-17.049-117.212-49.015-33.032-33.033-49.016-72.458-49.016-119.343 0-45.819 15.983-85.245 49.016-118.276 31.966-31.966 71.392-49.016 117.212-49.016 38.361 0 71.392 11.721 99.097 33.033 0 0 38.361-41.557 38.361-41.557-39.425-31.966-85.245-47.95-137.457-47.95-60.737 0-112.949 22.377-156.637 66.065-43.688 42.623-66.064 95.9-66.064 157.702 0 61.803 22.377 115.081 66.064 157.702 43.688 43.688 95.9 66.064 156.637 66.064z" />
<glyph unicode="&#xe026;" d="M252.903 467.269c70.194 0 130.064-23.742 179.613-72.258s75.355-107.355 77.419-177.549c0-70.193-23.742-131.097-72.258-180.645-48.516-49.548-108.387-75.355-178.58-77.419-70.194 0-130.065 23.742-180.645 72.258-49.548 49.548-75.355 108.387-76.387 178.58-1.032 70.194 22.709 131.097 71.226 180.645 49.548 49.548 109.419 75.355 179.613 76.387zM259.097 13.075c54.709 1.033 102.193 21.678 140.387 60.903 39.226 39.226 57.806 86.709 57.806 142.452-1.033 55.742-21.678 103.226-60.903 141.42-40.258 38.194-87.742 56.774-142.452 56.774-55.742-1.032-103.226-21.678-141.419-60.903-38.194-39.226-56.774-86.71-56.774-142.452 1.032-55.742 21.677-103.226 60.903-141.419 39.226-38.193 86.709-56.774 142.452-56.774zM135.226 94.624c2.065 9.291 4.129 20.645 6.194 35.097 3.097 14.452 10.322 37.161 21.678 68.129 12.387 30.968 25.806 53.678 41.291 69.162 15.484 15.484 37.161 28.903 66.064 40.258 27.871 11.355 53.678 18.58 74.322 22.709 0 0 32 5.161 32 5.161-2.065-9.291-4.129-20.645-6.193-35.097-3.097-14.452-10.322-37.161-21.678-68.129-12.387-30.968-25.807-53.678-41.291-69.162-14.452-14.452-36.129-27.871-65.032-39.226-28.903-11.355-54.709-18.581-75.355-22.709 0 0-32-6.194-32-6.194zM230.194 241.204c-7.226-7.226-11.355-15.484-11.355-25.807s4.129-18.58 11.355-26.839c7.226-7.226 16.516-11.355 26.838-11.355 9.291 0 18.58 4.129 25.806 11.355 17.548 18.581 33.033 51.613 46.452 99.097-48.516-13.42-81.548-28.903-99.097-46.452z" />
<glyph unicode="&#xe027;" d="M500.185 186.935c9.899-16.499 12.099-34.098 7.7-53.897 0 0-18.699-103.394-18.699-103.394-1.101-7.7-4.399-14.3-10.999-19.798-6.599-5.5-14.3-8.8-21.998-8.8 0 0-401.474 0-401.474 0-7.7 0-14.3 3.3-20.898 8.8-6.599 5.5-10.999 12.099-10.999 19.798 0 0-19.799 103.394-19.799 103.394-3.3 19.798 0 37.397 7.7 53.897 0 0 89.094 211.187 89.094 211.187 8.799 17.599 21.999 25.298 40.697 25.298 0 0 229.886 0 229.886 0 18.699 0 32.998-7.7 41.798-25.298 0 0 87.995-211.187 87.995-211.187zM461.687 113.24c1.101 7.7-1.101 15.399-5.5 20.899-4.399 6.599-10.999 9.899-19.798 9.899 0 0-361.877 0-361.877 0-8.799 0-15.398-3.3-19.799-9.899-4.4-5.5-6.599-13.199-5.5-20.899 0 0 7.7-41.798 7.7-41.798 1.1-8.8 4.4-15.399 10.999-20.899 6.6-5.5 14.299-8.8 21.998-8.8 0 0 332.178 0 332.178 0 8.8 0 15.399 3.3 21.998 8.8 6.599 5.5 9.899 12.099 10.999 20.899 0 0 6.599 41.798 6.599 41.798z" />
<glyph unicode="&#xe028;" d="M290.098 424.313c61.803 0 114.014-22.377 157.702-66.065 42.623-43.688 64.998-95.9 64.998-157.702 0-61.803-22.377-115.080-64.999-158.768-43.688-43.688-95.9-64.999-157.702-64.999-52.212 0-98.031 15.983-137.457 47.95 0 0 38.361 40.492 38.361 40.492 29.835-22.377 62.868-33.033 99.097-33.033 45.819 0 85.245 15.983 117.212 49.015 33.033 33.033 49.015 72.458 49.015 119.342 0 45.819-15.983 86.31-49.015 118.276-31.966 33.033-71.392 49.016-117.212 49.016-45.819 0-84.179-14.918-117.212-46.885-33.032-31.966-49.016-70.326-50.081-115.081 0 0 77.786 0 77.786 0 0 0-100.162-111.884-100.162-111.884 0 0-101.228 111.884-101.228 111.884 0 0 68.195 0 68.195 0 1.066 59.671 22.377 111.884 66.065 154.506 43.688 42.623 95.9 63.933 156.637 63.933z" />
<glyph unicode="&#xe029;" d="M399 418.333c10 0 18-4 25-11 8-7 11-15 11-25 0 0 0-389 0-389 0-10-3-19-11-26-7-7-15-10-25-10 0 0-286 0-286 0-10 0-18 3-25 10-8 7-11 16-11 26 0 0 0 389 0 389 0 10 3 18 11 25 7 7 15 11 25 11 0 0 30-77 30-77 0 0 226 0 226 0 0 0 30 77 30 77zM348 367.333c0 0-184 0-184 0s-23 51-23 51c0 0 56 0 56 0 0 0 18 51 18 51 0 0 82 0 82 0 0 0 18-51 18-51 0 0 57 0 57 0 0 0-24-51-24-51z" />
<glyph unicode="&#xe02a;" d="M256 464.805c69.262 0 127.867-25.573 176.882-74.589s74.589-107.621 74.589-176.882c0-69.262-25.573-127.867-74.589-176.882-49.016-49.016-107.621-74.589-176.882-74.589-69.262 0-127.867 25.573-176.882 74.589-49.016 49.016-74.589 107.621-74.589 176.882 0 69.262 25.573 127.867 74.589 176.882 49.016 49.016 107.621 74.589 176.882 74.589zM256 17.271c54.343 0 101.228 19.18 139.588 57.54 37.294 38.361 56.474 84.179 56.474 138.523 0 54.343-19.18 101.228-56.474 139.588-38.361 37.295-85.245 56.475-139.588 56.475-54.343 0-100.162-19.18-138.523-56.475-38.361-38.361-57.54-85.245-57.54-139.588 0-54.343 19.18-100.163 57.54-138.523 38.361-38.361 84.179-57.54 138.523-57.54zM275.18 355.052c0 0 0-133.195 0-133.195s82.048-82.048 82.048-82.048c0 0-26.639-26.639-26.639-26.639 0 0-92.704 92.704-92.704 92.704 0 0 0 149.178 0 149.178 0 0 37.294 0 37.294 0z" />
<glyph unicode="&#xe02b;" d="M148 157.333c0 0 180 0 180 0s1 0 3 1c0 0 2 0 2 0 0 0 0-47 0-47 0-14-5-26-15-36-10-10-22-16-36-16 0 0-128 0-128 0 0 0-77-76-77-76 0 0 0 76 0 76 0 0-26 0-26 0-13 0-25 6-36 16-10 10-15 22-15 36 0 0 0 153 0 153 0 15 5 27 15 37 11 9 23 14 36 14 0 0 97 0 97 0 0 0 0-158 0-158zM461 443.333c14 0 26-5 36-14 10-10 15-22 15-37 0 0 0-153 0-153 0-14-5-26-15-36-10-10-22-16-36-16 0 0-26 0-26 0 0 0 0-76 0-76 0 0-77 76-77 76 0 0-179 0-179 0 0 0 0 205 0 205 0 15 5 27 16 37 10 9 22 14 35 14 0 0 231 0 231 0z" />
<glyph unicode="&#xe02c;" d="M452.887 410.22c16.499 0 29.698-5.5 40.697-16.499 9.899-10.999 15.399-24.198 15.399-39.598 0 0 0-337.678 0-337.678 0-15.399-5.5-28.598-15.399-39.598-10.999-10.999-24.198-16.499-40.697-16.499 0 0-393.775 0-393.775 0-15.398 0-28.598 5.5-39.598 16.499-10.999 10.999-16.499 24.198-16.499 39.598 0 0 0 337.678 0 337.678 0 15.399 5.5 28.598 16.499 39.598 10.999 10.999 24.198 16.499 39.598 16.499 0 0 25.299 0 25.299 0 0 0 0-56.096 0-56.096 0 0 90.194 0 90.194 0 0 0 0 56.096 0 56.096 0 0 163.889 0 163.889 0 0 0 0-56.096 0-56.096 0 0 90.194 0 90.194 0 0 0 0 56.096 0 56.096 0 0 24.198 0 24.198 0zM452.887 16.446c0 0 0 225.486 0 225.486s-393.775 0-393.775 0c0 0 0-225.486 0-225.486 0 0 393.775 0 393.775 0zM149.307 466.317c0 0 0-95.694 0-95.694s-39.598 0-39.598 0c0 0 0 95.694 0 95.694 0 0 39.598 0 39.598 0zM402.291 466.317c0 0 0-95.694 0-95.694s-39.598 0-39.598 0c0 0 0 95.694 0 95.694 0 0 39.598 0 39.598 0z" />
<glyph unicode="&#xe02d;" d="M450.558 327.020c16.408 0 30.473-5.861 42.194-17.581 11.721-10.548 18.752-25.784 18.752-42.194 0 0 0-173.461 0-173.461 0-16.408-7.033-30.473-18.752-42.194-11.721-11.721-25.784-18.752-42.194-18.752 0 0-413.729 0-413.729 0 0 0 0 84.387 0 84.387 0 0 390.288 0 390.288 0 0 0 0 126.581 0 126.581 0 0-300.042 0-300.042 0 0 0 0-66.805 0-66.805 0 0-126.581 107.828-126.581 107.828 0 0 126.581 108.999 126.581 108.999 0 0 0-66.805 0-66.805 0 0 323.483 0 323.483 0z" />
<glyph unicode="&#xe02e;" d="M218 443.333c7 0 10-3 10-10 0 0 0-440 0-440 0-7-3-10-10-10 0 0-23 0-23 0-7 0-11 3-11 10 0 0 0 225 0 225 0 0-90 0-90 0-5 0-10 1-14 3-4 1-9 3-13 6 0 0-62 42-62 42-3 2-5 5-5 9 0 3 2 6 5 8 0 0 62 42 62 42 4 3 9 5 13 6 3 1 7 2 14 2 0 0 90 0 90 0 0 0 0 97 0 97 0 7 4 10 11 10 0 0 23 0 23 0zM507 337.333c3-2 5-5 5-8 0-4-2-6-5-8 0 0-61-42-61-42-7-5-11-7-13-7-5-2-9-3-14-3 0 0-155 0-155 0 0 0-20 118-20 118 0 0 175 0 175 0 6 0 11-1 14-2 4-1 8-3 13-6 0 0 61-42 61-42z" />
<glyph unicode="&#xe02f;" d="M389 287.333c34 0 63-12 87-35s36-52 36-85c0-34-12-62-36-85-24-23-53-35-87-35 0 0-296 0-296 0-25 0-47 9-65 27-19 17-28 39-28 63 0 25 9 47 27 65 18 17 40 26 66 26 1 0 3 0 5 0 3 0 5-1 5-1 0 4-1 11-1 20 0 37 14 68 40 94 27 26 59 39 97 39 30 0 58-9 82-27 23-17 39-40 48-68 9 1 16 2 20 2z" />
<glyph unicode="&#xe030;" d="M389 287.333c34 0 63-12 87-35s36-52 36-85c0-34-12-62-36-85-24-23-53-35-87-35 0 0-296 0-296 0-25 0-47 9-65 27-19 17-28 39-28 63 0 25 9 47 27 65 18 17 40 26 66 26 1 0 3 0 5 0 3 0 5-1 5-1 0 4-1 11-1 20 0 37 14 68 40 94 27 26 59 39 97 39 30 0 58-9 82-27 23-17 39-40 48-68 9 1 16 2 20 2zM291 176.333c5 6 7 11 7 15 0 7-5 13-15 17 0 0-2 0-2 0-9 5-16 7-20 8 0 0 26 59 26 59 2 0 3 4 3 11 0 4-2 8-4 9-6 3-12 2-18-4 0-1-6-6-15-17-10-10-20-21-31-33-12-13-19-22-23-27-4-6-6-11-6-15 0-8 5-13 15-16 0 0 2-1 2-1 3-1 9-4 19-8 0 0-26-58-26-58 0 0-1-4-1-4-1-3-1-5-1-8 0-3 1-6 4-9 6-3 12-1 17 5 34 34 57 60 69 76z" />
<glyph unicode="&#xe031;" d="M149.345 363.353c0 11.721-4.688 22.269-12.893 30.473s-18.752 12.893-30.473 12.893c-11.721 0-22.269-4.688-30.473-12.893-8.204-8.204-12.893-18.752-12.893-30.473 0-11.721 4.688-22.269 12.893-30.473 8.204-8.204 18.752-12.893 30.473-12.893 11.721 0 22.269 4.688 30.473 12.893 8.204 8.204 12.893 18.752 12.893 30.473zM505.644 169.968c0-11.721-3.517-21.096-11.721-29.301l-164.085-165.257c-9.377-8.204-19.925-11.72-30.473-11.72-12.893 0-22.269 3.516-30.473 11.72l-239.095 240.268c-9.377 8.204-16.407 18.752-22.268 33.989-5.861 14.065-8.204 26.957-8.204 38.677v139.473c0 11.721 3.517 21.096 11.72 30.473 9.377 8.204 18.752 11.72 30.473 11.72h139.473c11.72 0 24.613-2.344 38.678-8.204 15.237-5.861 25.785-12.893 35.161-22.268l239.095-239.095c8.204-8.204 11.721-18.752 11.721-30.473z" />
<glyph unicode="&#xe032;" d="M119 332.333c0 10-3 18-10 25-6 6-14 10-24 10-9 0-17-4-24-10-6-7-10-15-10-25 0-9 4-17 10-24 7-6 15-10 24-10 10 0 18 4 24 10 7 7 10 15 10 24zM404 179.333c0-10-3-18-10-24l-131-131c-7-7-15-10-24-10s-17 3-24 10l-191 191c-6 6-12 15-17 27-5 11-7 21-7 31v111c0 9 3 17 10 24 7 6 15 10 24 10h111c9 0 20-3 31-7 12-5 21-11 27-17l191-191c7-7 10-15 10-24zM506 179.333c0-10-3-18-9-24l-131-131c-7-7-15-10-25-10-6 0-11 1-15 4-4 2-9 6-15 12l126 125c6 6 10 14 10 24 0 9-4 17-10 24l-191 191c-7 6-16 12-27 17-11 4-22 7-31 7h59c10 0 20-3 32-7 11-5 20-11 27-17l191-191c6-7 9-15 9-24z" />
<glyph unicode="&#xe033;" d="M482.877 465.735h-453.755c-14.181 0-24.106-9.925-24.106-24.106v-22.688c0-14.18 9.925-24.106 24.106-24.106h453.755c14.18 0 24.106 9.925 24.106 24.106v22.688c0 14.18-9.925 24.106-24.106 24.106zM446.010 274.306v22.688c0 14.181-11.344 24.106-24.106 24.106h-331.808c-12.763 0-24.106-9.925-24.106-24.106v-22.688c0-14.18 11.344-24.106 24.106-24.106h331.808c12.763 0 24.106 9.926 24.106 24.106zM457.353 31.832h-402.709c-14.181 0-25.523-9.925-25.523-24.106v-22.688c0-14.18 11.344-24.106 25.523-24.106h402.709c14.18 0 25.523 9.925 25.523 24.106v0 22.688c0 14.18-11.344 24.106-25.523 24.106zM421.904 152.36c0 14.18-11.344 24.106-25.523 24.106h-280.761c-14.18 0-25.523-9.925-25.523-24.106v-22.688c0-14.18 11.344-24.106 25.523-24.106h280.761c14.18 0 25.523 9.925 25.523 24.106 0 0 0 0 0 0z" />
<glyph unicode="&#xe034;" d="M482.877 464.316h-453.755c-14.181 0-24.106-11.344-24.106-24.106v-22.688c0-14.18 9.925-25.523 24.106-25.523h453.755c14.18 0 24.106 11.344 24.106 25.523v22.688c0 12.763-9.925 24.106-24.106 24.106zM482.877 321.099h-453.755c-14.181 0-24.106-11.344-24.106-24.106v-22.688c0-14.18 9.925-25.523 24.106-25.523h453.755c14.18 0 24.106 11.344 24.106 25.523v22.688c0 12.763-9.925 24.106-24.106 24.106zM482.877 177.884h-453.755c-14.181 0-24.106-11.344-24.106-25.523v-22.688c0-12.763 9.925-24.106 24.106-24.106h453.755c14.18 0 24.106 11.344 24.106 24.106v22.688c0 14.18-9.925 25.523-24.106 25.523zM482.877 34.667h-453.755c-14.181 0-24.106-11.344-24.106-25.523v-22.688c0-12.763 9.925-24.106 24.106-24.106h453.755c14.18 0 24.106 11.344 24.106 24.106v22.688c0 14.18-9.925 25.523-24.106 25.523z" />
<glyph unicode="&#xe035;" d="M482.877 465.735h-453.755c-14.181 0-24.106-9.925-24.106-24.106v-22.688c0-14.18 9.925-24.106 24.106-24.106h453.755c14.18 0 24.106 9.925 24.106 24.106v22.688c0 14.18-9.925 24.106-24.106 24.106zM29.122 250.2h331.808c12.763 0 24.106 9.925 24.106 24.106v22.688c0 14.18-11.344 25.523-24.106 25.523h-331.808c-14.181 0-24.106-11.344-24.106-25.523v-22.688c0-14.18 9.925-24.106 24.106-24.106zM433.248 31.832h-404.124c-14.181 0-24.106-9.925-24.106-24.106v-22.688c0-14.18 9.925-24.106 24.106-24.106h404.124c14.18 0 24.106 9.925 24.106 24.106v0 22.688c0 14.18-9.925 24.106-24.106 24.106zM29.122 105.567h282.178c12.763 0 24.106 9.925 24.106 24.106 0 0 0 0 0 0v22.688c0 14.18-11.344 24.106-24.106 24.106h-282.178c-14.181 0-24.106-9.925-24.106-24.106v-22.688c0-14.18 9.925-24.106 24.106-24.106z" />
<glyph unicode="&#xe036;" d="M482.877 465.735h-453.755c-14.181 0-24.106-9.925-24.106-24.106v-22.688c0-14.18 9.925-24.106 24.106-24.106h453.755c14.18 0 24.106 9.925 24.106 24.106v22.688c0 14.18-9.925 24.106-24.106 24.106zM482.877 321.099h-331.808c-12.763 0-24.106-9.925-24.106-24.106v-22.688c0-14.18 11.344-24.106 24.106-24.106h331.808c14.18 0 24.106 9.925 24.106 24.106v22.688c0 14.18-9.925 24.106-24.106 24.106zM482.877 31.832h-404.124c-14.18 0-24.106-9.925-24.106-24.106v-22.688c0-14.18 9.926-24.106 24.106-24.106h404.124c12.763 0 24.106 9.925 24.106 24.106v0 22.688c0 14.18-11.344 24.106-24.106 24.106zM506.983 152.36c0 14.18-9.925 24.106-24.106 24.106h-282.178c-12.763 0-24.106-9.925-24.106-24.106v-22.688c0-14.18 11.344-24.106 24.106-24.106h282.178c14.18 0 24.106 9.925 24.106 24.106 0 0 0 0 0 0z" />
<glyph unicode="&#xe037;" d="M170.833 22.392l-24.726-61.815h230.777l-23.353 61.815zM190.063 84.208h142.863l-71.431 189.567zM459.303 466.088h-406.607c-27.473 0-49.453-21.979-49.453-49.453v-406.607c0-27.473 21.979-49.453 49.453-49.453h13.737l146.982 370.891c2.746 6.869 9.615 12.364 17.858 12.364h61.815c8.242 0 15.111-5.494 16.484-12.364v0l146.983-370.891h2.747c27.473 0 49.453 21.979 49.453 49.453v406.607c0 27.473-21.979 49.453-49.453 49.453z" />
<glyph unicode="&#xe038;" d="M367.51 221.91c48.034 8.577 85.778 51.466 85.778 113.226 0 66.906-48.034 126.949-142.39 126.949h-238.462c-13.724 0-24.017-10.293-24.017-22.302v-452.903c0-12.007 10.294-22.302 24.017-22.302h247.038c94.354 0 144.105 60.045 144.105 135.527 0 61.76-42.889 113.226-96.070 121.803zM154.784 369.448h132.096c36.026 0 58.329-22.302 58.329-53.182s-22.302-51.466-58.329-51.466h-132.095zM292.026 57.218h-137.244v113.226h137.244c41.172 0 63.475-24.017 63.475-56.613 0-34.31-24.017-56.613-63.475-56.613z" />
<glyph unicode="&#xe039;" d="M348.639 439.784c0 12.007-10.293 22.302-22.302 22.302h-41.172c-12.007 0-22.302-10.293-22.302-22.302v0l-99.502-447.756c0 0 0 0 0 0v0 0c0-1.717 0-3.43 0-5.149 0-12.007 8.577-20.586 20.586-22.302v0h42.888c12.007 0 20.586 8.577 22.302 20.586v0l99.502 447.756c0 1.718 0 3.43 0 6.861z" />
<glyph unicode="&#xe03a;" d="M473.305 29.749c0 0 0 0 0 0v0h-435.856c-9.991-1.25-17.483-8.742-17.483-19.982 0-9.991 7.494-18.733 17.483-18.733v0h435.856c0 0 0 0 0 0 11.24 0 18.733 8.742 18.733 18.733 0 11.24-7.493 19.982-18.733 19.982zM98.642 73.459h36.218c7.494 0 13.738 4.995 16.236 11.24l21.231 58.697h166.1l23.728-59.947c2.497-4.995 7.493-8.742 13.738-9.991v0h36.218c0 0 1.25 0 1.25 0 8.742 0 16.236 7.493 16.236 16.236 0 2.497 0 3.747 0 4.995v0l-1.25 1.25c0 0 0 1.25 0 1.25l-128.634 327.204c-2.497 6.245-8.742 11.24-14.986 11.24h-57.447c-7.494 0-13.738-4.995-14.987-11.24l-129.883-328.453c0-2.497 0-3.747 0-6.245 0-8.742 7.493-16.236 16.236-16.236zM256 371.94l64.942-172.345h-129.883z" />
<glyph unicode="&#xe03b;" d="M475.916 9.015c0 0-1.562 0-1.562 0v0h-438.271c-14.038 0-23.395-10.917-23.395-23.395s9.358-23.395 23.395-23.395v-1.562h438.271v1.562c0 0 1.562-1.562 1.562-1.562 12.478 0 23.396 10.917 23.396 24.955 0 12.478-10.917 23.395-23.395 23.395zM256 37.091c126.333 0 188.721 71.745 188.721 179.364v226.155c0 12.478-10.917 23.396-23.395 23.396h-31.193c-12.478 0-23.395-10.917-23.395-23.396 0-1.561 0-1.561 0-1.561v-223.035c0-68.625-38.991-113.857-110.738-113.857s-110.738 45.231-110.738 113.857v223.035c0 0 0 0 0 1.562 0 12.478-10.917 23.395-23.395 23.395h-31.193c-12.478 0-23.395-10.917-23.395-23.395v-226.155c0-107.617 62.388-179.364 188.72-179.364z" />
<glyph unicode="&#xe03c;" d="M227.23 239.972v136.391c0 3.197-1.066 5.328-3.197 7.459-2.131 1.066-4.262 2.131-7.459 2.131-2.131 0-4.262-1.066-6.393-2.131-2.131-2.131-3.197-4.262-3.197-7.459v-136.391c0-3.197 1.066-5.328 3.197-6.393 2.131-2.131 4.262-3.197 6.393-3.197 3.197 0 5.328 1.066 7.459 3.197 2.131 1.066 3.197 3.197 3.197 6.393zM431.817 133.416c0-5.328-2.131-10.656-6.394-13.853-3.197-4.262-8.524-6.394-13.853-6.394h-129.998l-15.983-147.046c0-2.131-1.066-4.262-3.197-6.394-1.066-1.066-3.197-2.131-6.393-2.131v0c-5.328 0-8.524 3.197-9.59 8.524l-23.442 147.046h-122.539c-5.328 0-10.656 2.131-13.853 6.394-4.262 3.197-6.394 8.524-6.394 13.853 0 24.508 8.525 46.885 24.508 67.13 15.983 20.245 34.098 29.836 54.343 29.836v155.571c-10.655 0-20.245 4.262-27.704 11.721s-11.722 17.049-11.722 27.704c0 10.655 4.262 19.18 11.722 27.704 7.459 7.459 17.049 10.655 27.704 10.655h193.931c10.656 0 20.245-3.197 27.704-10.655 7.459-8.524 11.721-17.049 11.721-27.704 0-10.656-4.262-20.246-11.721-27.704-7.459-7.459-17.049-11.721-27.704-11.721v-155.571c20.245 0 38.361-9.59 54.343-29.836s24.508-42.623 24.508-67.13z" />
<glyph unicode="&#xe03d;" d="M4.614 464.719c139.23 0 256.543-50.277 354.518-148.254 99.264-97.976 148.254-215.29 148.254-354.518 0 0-78.637 0-78.637 0 0 117.313-41.253 217.868-123.759 299.086-82.506 82.506-183.060 123.759-300.373 123.759 0 0 0 79.928 0 79.928zM4.614 307.442c96.687 0 177.904-33.518 244.94-101.844 68.326-67.036 101.844-148.254 101.844-243.651 0 0-78.637 0-78.637 0 0 73.481-25.782 136.651-78.637 188.218-51.567 52.855-114.735 78.638-189.506 78.638 0 0 0 78.638 0 78.638zM80.675 111.49c20.627 0 37.386-6.446 52.854-21.916 14.181-14.182 21.916-32.228 21.916-52.855 0-20.627-7.735-37.386-21.916-52.855-15.47-14.182-32.228-21.916-52.855-21.916-20.627 0-38.675 7.735-52.855 21.916-15.47 15.47-23.204 32.228-23.204 52.855 0 20.627 7.735 38.675 23.204 52.855 14.181 15.47 32.228 21.916 52.855 21.916z" />
</font>
</defs>
</svg>
